<?xml version="1.0" encoding="UTF-8"?><svg id="Camada_2" xmlns="http://www.w3.org/2000/svg" xmlns:xlink="http://www.w3.org/1999/xlink" viewBox="0 0 168.3 112.7"><defs><style>.cls-1{fill:url(#Gradiente_sem_nome_6);fill-rule:evenodd;}.cls-1,.cls-2{stroke-width:0px;}.cls-2{fill:url(#Gradiente_sem_nome_6-2);}</style><linearGradient id="Gradiente_sem_nome_6" x1="84.21" y1="112.7" x2="84.21" y2="52.02" gradientUnits="userSpaceOnUse"><stop offset="0" stop-color="#68cad4"/><stop offset=".51" stop-color="#47619c"/><stop offset="1" stop-color="#825ee4"/></linearGradient><linearGradient id="Gradiente_sem_nome_6-2" x1="84.15" y1="89.26" x2="84.15" y2="0" xlink:href="#Gradiente_sem_nome_6"/></defs><g id="Camada_1-2"><path class="cls-1" d="M97.18,68.52c-13,7.7-26.42,16.14-28.8,18.87-3.37,3.87-2.99,9.77.89,13.15,3.87,3.37,9.78,2.96,13.15-.91,2.38-2.73,8.9-17.18,14.76-31.11h0ZM111.85,58.79c-2.72,6.81-16.53,41.09-21.98,47.34-6.95,7.98-19.09,8.81-27.08,1.86-2.43-2.12-4.2-4.74-5.28-7.56-2.47-6.43-1.4-13.98,3.42-19.52,5.45-6.25,37.51-24.62,43.89-28.24,1.83-1.03,4.11-.81,5.68.57,1.59,1.39,2.13,3.59,1.35,5.55h0Z"/><path class="cls-2" d="M168.3,84.15c-.12,2.84-2.48,5.11-5.32,5.11-2.84,0-5.21-2.27-5.32-5.11,0-40.32-33.18-73.5-73.5-73.5S10.65,43.62,10.65,84.15c-.54,2.5-2.77,4.3-5.32,4.3s-4.79-1.8-5.32-4.3C0,37.99,37.99,0,84.15,0s84.15,37.75,84.15,84.15Z"/></g></svg>