<?xml version="1.0" encoding="utf-8"?>
<!-- Generator: Adobe Illustrator 28.1.0, SVG Export Plug-In . SVG Version: 6.00 Build 0)  -->
<svg version="1.1" id="Camada_2_00000124873132404063533110000003121923548324878491_"
	 xmlns="http://www.w3.org/2000/svg" xmlns:xlink="http://www.w3.org/1999/xlink" x="0px" y="0px" viewBox="0 0 608.8 236"
	 style="enable-background:new 0 0 608.8 236;" xml:space="preserve">
<style type="text/css">
	.st0{fill:#68CAD4;}
	.st1{fill:#FFFFFF;}
	.st2{fill-rule:evenodd;clip-rule:evenodd;fill:url(#SVGID_1_);}
	.st3{fill:url(#SVGID_00000107572034665906591220000006872716699863430063_);}
</style>
<g id="Camada_1-2">
	
		<image style="overflow:visible;opacity:0.75;enable-background:new    ;" width="578" height="243" xlink:href="D3268149.png"  transform="matrix(1.0208 0 0 1.0208 -5 -5)">
	</image>
	<g>
		<g>
			<g>
				<path class="st0" d="M92.3,188.2c0,1.7-0.5,3.1-1.6,4c-1,0.9-2.2,1.3-3.4,1.3s-2.3-0.4-3.4-1.3s-1.5-2.2-1.5-4v-32.1
					c0-4.9-1.2-9.1-3.8-12.6c-2.4-3.5-6.2-5.2-11.2-5.2c-4.7,0-8.4,1.8-10.9,5.5c-2.6,3.7-3.9,7.9-3.9,12.7v31.6
					c0,1.8-0.5,3.3-1.5,4.1c-1,0.9-2.1,1.3-3.4,1.3c-1.3,0-2.4-0.4-3.4-1.3c-1-0.9-1.4-2.2-1.4-4.1v-31.6c0-4.7-1.2-8.9-3.8-12.7
					c-2.6-3.7-6.2-5.5-11.1-5.5s-8.8,1.7-11.3,5.2c-2.6,3.5-3.8,7.7-3.8,12.6v32.1c0,1.8-0.5,3.3-1.5,4.1c-1,0.9-2.1,1.3-3.4,1.3
					s-2.2-0.4-3.3-1.3s-1.4-2.2-1.4-4.1v-32.1c0-4.4,0.7-8.4,2.1-11.7s3.3-6.3,5.6-8.6c2.3-2.3,4.9-4.1,8-5.3c3-1.2,5.9-1.8,8.9-1.8
					c4.4,0,8.4,1,11.6,3.2c3.4,2.1,6.2,4.9,8.6,8.2c2.3-3.4,5-6.1,8-8.3c3-2,6.7-3.2,11.3-3.2c7.3,0,13.3,2.3,18,7
					c4.7,4.7,7,11.5,7,20.4L92.3,188.2L92.3,188.2z"/>
				<path class="st0" d="M161.3,189.6c0,6.4-1,11.7-3.2,15.7c-2,4-4.7,7.1-7.9,9.4c-3.2,2.2-6.5,3.7-10.3,4.5
					c-3.7,0.8-7.1,1.2-10.4,1.2c-5.3,0-10.2-1-14.8-3c-4.6-2-8.5-4.4-11.5-7.2c-1.4-1.3-2.2-2.7-2.3-4c-0.1-1.4,0.2-2.4,1-3.4
					c0.7-0.9,1.7-1.5,3-1.7c1.2-0.2,2.4,0.1,3.6,1c2.3,1.9,5.3,3.9,8.9,5.7s7.8,2.8,12.4,2.8c1.7,0,3.9-0.1,6.3-0.4
					c2.4-0.3,4.8-1.1,7-2.4c2.2-1.4,4.1-3.5,5.7-6.3c1.5-2.9,2.3-6.7,2.3-11.7v-3.1c-2.4,2.2-5.3,3.9-8.8,4.9c-3.5,1-7.1,1.6-11,1.6
					c-4.4,0-8.4-0.7-12-2.2c-3.7-1.5-6.8-3.7-9.5-6.4c-2.8-2.7-4.9-5.8-6.4-9.5c-1.4-3.7-2.2-7.7-2.2-11.8V135c0-1.7,0.5-3.1,1.4-4
					c1-0.9,2-1.3,3.3-1.3c1.2,0,2.3,0.4,3.4,1.3s1.5,2.2,1.5,4v28.1c0,5.8,1.9,10.6,5.9,14.5s8.8,5.7,14.6,5.7
					c2.8,0,5.4-0.5,7.9-1.5c2.4-1,4.6-2.4,6.4-4.2c1.8-1.8,3.4-4,4.4-6.4c1-2.4,1.6-5.1,1.6-8.1V135c0-1.7,0.5-3.1,1.4-4
					c1-0.9,2.1-1.3,3.4-1.3s2.3,0.4,3.4,1.3c1,0.9,1.5,2.2,1.5,4L161.3,189.6L161.3,189.6z"/>
				<path class="st1" d="M248.8,172.5c-4.2,6.7-9.5,11.8-16.1,15.3c-6.5,3.4-13.5,5.1-20.7,5.1c-6.2,0-11.9-1.1-17.3-3.4
					s-9.9-5.3-13.8-9.3c-3.9-3.9-6.9-8.5-9.1-13.8s-3.3-10.9-3.3-17s1.1-11.5,3.4-16.8c2.2-5.3,5.3-9.9,9.2-13.8
					c4-4,8.6-7.1,13.9-9.4c5.3-2.3,10.9-3.5,16.9-3.5c7.5,0,14.5,1.8,21.1,5.6c6.5,3.8,11.7,8.7,15.7,14.6c0.7,1.4,0.9,2.7,0.5,3.9
					c-0.4,1.2-1.2,2.1-2.2,2.8c-1,0.5-2.1,0.7-3.5,0.5c-1.3-0.2-2.3-1-3.2-2.3c-3.6-5.3-7.9-9.2-12.8-11.7s-10.1-3.8-15.5-3.8
					c-4.9,0-9.4,0.9-13.6,2.7c-4.1,1.8-7.7,4.2-10.7,7.2s-5.4,6.6-7,10.7c-1.6,4.1-2.4,8.6-2.4,13.3s0.8,9.3,2.6,13.4
					s4.1,7.7,7,10.6c3.1,3.1,6.6,5.4,10.7,7c4.1,1.6,8.6,2.4,13.6,2.4c6,0,11.4-1.4,16.3-4.2c4.9-2.8,8.9-6.6,11.7-11.6
					c0.8-1.4,1.9-2.1,3.2-2.2c1.3-0.1,2.4,0.1,3.6,0.7c1,0.6,1.7,1.6,2.2,2.9C249.7,169.9,249.6,171.2,248.8,172.5L248.8,172.5z"/>
				<path class="st1" d="M316.5,161c0,4.7-0.9,9.1-2.7,13c-1.7,4-4.1,7.3-6.9,10.2c-3,2.9-6.4,5.1-10.3,6.7c-4,1.6-8.1,2.4-12.6,2.4
					c-4.4,0-8.8-0.8-12.7-2.4c-3.9-1.6-7.3-3.9-10.3-6.7c-2.9-2.9-5.1-6.3-6.8-10.3c-1.6-4-2.4-8.3-2.4-12.9c0-4.4,0.8-8.5,2.4-12.5
					c1.6-4,3.9-7.3,6.8-10.2c2.9-3,6.2-5.3,10.2-7c4-1.7,8.2-2.6,12.7-2.6c4.5,0,8.6,0.8,12.6,2.6s7.3,4,10.3,6.8
					c3,3,5.3,6.4,7,10.3C315.7,152.4,316.5,156.6,316.5,161L316.5,161z M306.7,161c0-3.2-0.6-6.1-1.8-8.8c-1.2-2.8-2.9-5.1-4.9-7.1
					c-2-1.9-4.4-3.5-7.1-4.7s-5.7-1.8-8.8-1.8c-3.2,0-6.2,0.6-9,1.8c-2.8,1.2-5.1,2.9-7.1,4.9c-2,2-3.7,4.4-4.8,7.1
					s-1.7,5.6-1.7,8.7c0,3.3,0.6,6.2,1.7,9c1.1,2.8,2.8,5.2,4.8,7.2c1.9,2,4.3,3.7,7,4.8s5.8,1.7,9,1.7c3.3,0,6.1-0.6,8.8-1.7
					c2.8-1.1,5.1-2.8,7.1-4.8s3.7-4.4,4.9-7.2C306.1,167.3,306.7,164.2,306.7,161L306.7,161z"/>
				<path class="st1" d="M378,188.1c0,1.8-0.5,3.3-1.5,4.1c-1,0.9-2.1,1.3-3.4,1.3c-1.2,0-2.2-0.4-3.3-1.3s-1.4-2.2-1.4-4.1v-29.5
					c0-5.7-1.7-10.6-5.3-14.6c-3.5-4-8.1-5.9-13.8-5.9c-5.6,0-10.4,2-13.9,5.9c-3.5,4-5.1,8.8-5.1,14.3v29.8c0,1.8-0.5,3.3-1.5,4.1
					c-1,0.9-2.1,1.3-3.4,1.3c-1.2,0-2.2-0.4-3.3-1.3c-1-0.9-1.4-2.2-1.4-4.1v-30c0-4.4,0.7-8.5,2.2-12.1c1.5-3.7,3.6-6.7,6.1-9.4
					c2.7-2.6,5.7-4.6,9.2-6c3.4-1.4,7-2.1,10.9-2.1c4.2,0,8,0.8,11.4,2.3c3.5,1.5,6.5,3.8,9.1,6.5c2.4,2.7,4.5,5.9,5.9,9.6
					c1.4,3.7,2.1,7.7,2.1,11.7L378,188.1L378,188.1z"/>
				<path class="st1" d="M438.2,175.1c0,3.3-0.8,6.1-2.4,8.6c-1.6,2.4-3.8,4.5-6.4,6.1c-2.7,1.6-5.7,3-9,3.8
					c-3.3,0.8-6.5,1.2-9.8,1.2c-2.2,0-4.7-0.3-7.3-0.7c-2.7-0.5-5.4-1.3-8.1-2.4c-2.6-1.1-5-2.4-7.3-4.2c-2.3-1.6-4.2-3.7-5.7-6.1
					c-1-1.6-1.3-3.2-1-4.4c0.3-1.3,1-2.3,2-3.1c0.9-0.6,2-0.9,3.4-0.7c1.3,0.1,2.4,0.8,3.4,2c2.1,3.1,5,5.5,8.6,7.5
					c3.6,1.9,7.7,2.9,12.5,2.9c1.8,0,3.9-0.2,5.9-0.5c2.1-0.4,4.1-1,5.8-1.8c1.7-0.8,3.3-1.9,4.4-3.2c1.1-1.3,1.7-2.9,1.7-4.7
					c0-2.9-1.8-5.1-5.5-6.6c-3.7-1.5-9-3.1-15.9-4.5c-4.4-1-8-2.1-10.7-3.4s-4.8-2.6-6.3-4c-1.4-1.4-2.4-3.1-3-4.7s-0.7-3.4-0.7-5.3
					c0-5,2.1-9.2,6.5-12.6c4.4-3.4,9.8-5.1,16.2-5.1c5.3,0,9.9,1,13.8,3c4,2,7.2,5,10.1,9.1c0.9,1.4,1.2,2.9,1,4.2
					c-0.3,1.3-0.9,2.3-1.8,3c-0.9,0.7-2,1-3.4,0.8c-1.3-0.2-2.6-1.1-3.7-2.8c-1.9-2.8-4.3-4.8-7-6c-2.8-1.2-5.7-1.8-8.9-1.8
					c-3.4,0-6.3,0.6-8.9,1.8c-2.4,1.2-3.8,3.3-3.8,6.1c0,2.4,1.1,4.2,3.4,5.4c2.2,1.2,6.3,2.4,12.5,3.6c8.8,1.8,15.3,4.3,19.6,7.2
					C436.1,165.8,438.2,169.9,438.2,175.1L438.2,175.1z"/>
				<path class="st1" d="M501.9,189.6c0,6.4-1,11.7-3.2,15.7c-2,4-4.7,7.1-7.9,9.4s-6.5,3.7-10.3,4.5c-3.7,0.8-7.1,1.2-10.4,1.2
					c-5.3,0-10.2-1-14.8-3c-4.6-2-8.5-4.4-11.5-7.2c-1.4-1.3-2.2-2.7-2.3-4c-0.1-1.4,0.2-2.4,1-3.4c0.7-0.9,1.7-1.5,3-1.7
					c1.2-0.2,2.4,0.1,3.6,1c2.3,1.9,5.3,3.9,8.9,5.7s7.8,2.8,12.4,2.8c1.7,0,3.9-0.1,6.3-0.4c2.4-0.3,4.8-1.1,7-2.4
					c2.2-1.4,4.1-3.5,5.7-6.3c1.5-2.9,2.3-6.7,2.3-11.7v-3.1c-2.4,2.2-5.3,3.9-8.8,4.9c-3.5,1-7.1,1.6-11,1.6c-4.4,0-8.4-0.7-12-2.2
					c-3.7-1.5-6.8-3.7-9.5-6.4c-2.8-2.7-4.9-5.8-6.4-9.5c-1.4-3.7-2.2-7.7-2.2-11.8V135c0-1.7,0.5-3.1,1.4-4c1-0.9,2-1.3,3.3-1.3
					c1.2,0,2.3,0.4,3.4,1.3c1,0.9,1.5,2.2,1.5,4v28.1c0,5.8,1.9,10.6,5.9,14.5s8.8,5.7,14.6,5.7c2.8,0,5.4-0.5,7.9-1.5
					c2.4-1,4.6-2.4,6.4-4.2c1.8-1.8,3.4-4,4.4-6.4c1.1-2.4,1.6-5.1,1.6-8.1V135c0-1.7,0.5-3.1,1.4-4c1-0.9,2.1-1.3,3.4-1.3
					s2.3,0.4,3.4,1.3c1,0.9,1.5,2.2,1.5,4L501.9,189.6L501.9,189.6z"/>
				<path class="st1" d="M562.5,175.1c0,3.3-0.8,6.1-2.4,8.6c-1.6,2.4-3.8,4.5-6.4,6.1c-2.7,1.6-5.7,3-9,3.8
					c-3.3,0.8-6.5,1.2-9.8,1.2c-2.2,0-4.7-0.3-7.3-0.7c-2.7-0.5-5.4-1.3-8.1-2.4c-2.6-1.1-5-2.4-7.3-4.2c-2.3-1.6-4.2-3.7-5.7-6.1
					c-1-1.6-1.3-3.2-1-4.4c0.3-1.3,1-2.3,2-3.1c0.9-0.6,2-0.9,3.4-0.7c1.3,0.1,2.4,0.8,3.4,2c2.1,3.1,5,5.5,8.6,7.5
					c3.6,1.9,7.7,2.9,12.5,2.9c1.8,0,3.9-0.2,5.9-0.5c2.1-0.4,4.1-1,5.8-1.8c1.7-0.8,3.3-1.9,4.4-3.2c1.1-1.3,1.7-2.9,1.7-4.7
					c0-2.9-1.8-5.1-5.5-6.6c-3.7-1.5-9-3.1-15.9-4.5c-4.4-1-8-2.1-10.7-3.4c-2.8-1.2-4.8-2.6-6.3-4c-1.4-1.4-2.4-3.1-3-4.7
					c-0.5-1.6-0.7-3.4-0.7-5.3c0-5,2.1-9.2,6.5-12.6s9.8-5.1,16.2-5.1c5.3,0,9.9,1,13.8,3c4,2,7.2,5,10.1,9.1c0.9,1.4,1.2,2.9,1,4.2
					c-0.3,1.3-0.9,2.3-1.8,3c-0.9,0.7-2,1-3.4,0.8s-2.6-1.1-3.7-2.8c-1.9-2.8-4.3-4.8-7-6c-2.8-1.2-5.7-1.8-8.9-1.8
					c-3.4,0-6.3,0.6-8.9,1.8c-2.4,1.2-3.8,3.3-3.8,6.1c0,2.4,1.1,4.2,3.4,5.4c2.2,1.2,6.3,2.4,12.5,3.6c8.8,1.8,15.3,4.3,19.6,7.2
					C560.4,165.8,562.5,169.9,562.5,175.1L562.5,175.1z"/>
				
					<linearGradient id="SVGID_1_" gradientUnits="userSpaceOnUse" x1="82.2535" y1="-631.0952" x2="82.2535" y2="-575.3876" gradientTransform="matrix(1 0 0 -1 0 -524)">
					<stop  offset="0" style="stop-color:#68CAD4"/>
					<stop  offset="0.51" style="stop-color:#47619C"/>
					<stop  offset="1" style="stop-color:#825EE4"/>
				</linearGradient>
				<path class="st2" d="M94.2,66.5c-11.9,7.1-24.3,14.9-26.4,17.4c-3.1,3.6-2.8,9,0.8,12c3.6,3.1,9,2.8,12-0.8
					C82.9,92.6,88.8,79.3,94.2,66.5L94.2,66.5z M107.7,57.6c-2.4,6.2-15.2,37.8-20.2,43.5c-6.4,7.3-17.6,8.1-24.9,1.7
					c-2.2-1.9-3.9-4.4-4.9-6.9c-2.2-5.9-1.3-12.9,3.2-18c5-5.7,34.5-22.7,40.3-25.9c1.6-0.9,3.8-0.7,5.2,0.5
					C107.9,53.7,108.4,55.7,107.7,57.6L107.7,57.6z"/>
				
					<linearGradient id="SVGID_00000019636244992804801240000014463246835569813644_" gradientUnits="userSpaceOnUse" x1="82.2242" y1="-609.5415" x2="82.2242" y2="-527.5744" gradientTransform="matrix(1 0 0 -1 0 -524)">
					<stop  offset="0" style="stop-color:#68CAD4"/>
					<stop  offset="0.51" style="stop-color:#47619C"/>
					<stop  offset="1" style="stop-color:#825EE4"/>
				</linearGradient>
				<path style="fill:url(#SVGID_00000019636244992804801240000014463246835569813644_);" d="M159.5,80.8c-0.1,2.7-2.2,4.7-4.9,4.7
					c-2.7,0-4.8-2-4.9-4.7c0-37.1-30.5-67.6-67.6-67.6S14.7,43.6,14.7,80.8c-0.5,2.3-2.6,4-4.9,4s-4.4-1.6-4.9-4
					C5,38.5,39.9,3.6,82.3,3.6S159.6,38.2,159.5,80.8L159.5,80.8z"/>
			</g>
		</g>
	</g>
</g>
</svg>
