<?xml version="1.0" encoding="UTF-8"?>
<svg id="Camada_2" data-name="Camada 2" xmlns="http://www.w3.org/2000/svg" xmlns:xlink="http://www.w3.org/1999/xlink" viewBox="0 0 296.88 92.08">
  <defs>
    <style>
      .cls-1 {
        filter: url(#drop-shadow-1);
      }

      .cls-2 {
        fill: #7ee3e7;
      }

      .cls-2, .cls-3 {
        stroke-width: 0px;
      }

      .cls-3 {
        fill: #fff;
      }
    </style>
    <filter id="drop-shadow-1" filterUnits="userSpaceOnUse">
      <feOffset dx="7" dy="7"/>
      <feGaussianBlur result="blur" stdDeviation="5"/>
      <feFlood flood-color="#444" flood-opacity=".75"/>
      <feComposite in2="blur" operator="in"/>
      <feComposite in="SourceGraphic"/>
    </filter>
  </defs>
  <g id="Camada_1-2" data-name="Camada 1">
    <g id="Camada_2-2" data-name="Camada 2" class="cls-1">
      <g id="Camada_1-2" data-name="Camada 1-2">
        <ellipse class="cls-2" cx="124.11" cy="69.74" rx="8.42" ry="8.3" transform="translate(-12.96 108.19) rotate(-45)"/>
        <path class="cls-3" d="M146.09,67.56c0-.24-.07-.47-.1-.72-.07-.46-.12-.93-.21-1.39-.06-.28-.13-.55-.2-.81-.1-.41-.2-.81-.31-1.2s-.19-.59-.28-.89-.25-.71-.39-1.06-.25-.61-.39-.91-.29-.63-.45-.94-.32-.62-.5-.93-.32-.54-.49-.81-.4-.63-.61-.94-.31-.42-.47-.63c-.25-.34-.5-.68-.81-1.01l-.22-.24c-1.59-1.85-3.47-3.43-5.56-4.67l-.12-.07c-.5-.29-1.03-.56-1.55-.81l-.2-.1c-.53-.24-1.07-.46-1.63-.68l-.2-.07c-.55-.2-1.12-.38-1.7-.55h-.15c-1.85-.52-3.77-.8-5.7-.81h-.04c-1.26,0-2.52.1-3.76.29h0l-.57.1h0c-1.04.19-2.07.47-3.07.81h0l-.17.06h0c-1.07.38-2.11.86-3.09,1.42h0c-.46.26-.91.55-1.35.81h-.05c-.7.49-1.37,1.01-2.01,1.57-1.81,1.48-3.38,3.23-4.64,5.2-2.05,2.97-3.9,6.07-5.52,9.29v.07l-1.73,3.33-.18.33-.56,1.08c-.42.81-.81,1.58-1.28,2.36-.07.12-.14.25-.2.37-.49.87-.98,1.73-1.49,2.57h0l-.08.15c-.55.9-1.11,1.77-1.68,2.63l-.12.15c-1.02,1.18-2.22,2.19-3.54,3.02-2.56,1.54-5.47,2.41-8.46,2.51-6.9,0-13-4.49-15.04-11.08-.54-1.75-.77-3.59-.69-5.42.39-8.55,7.81-15.11,16.38-15.11h11.45c1.23,0,2.23-1,2.23-2.23v-1.63c0-1.27-1.04-2.3-2.31-2.3h-12c-12.14,0-21.97,9.84-21.97,21.97h0c0,12.14,9.84,21.97,21.97,21.97,3.3.01,6.55-.71,9.54-2.11,2.67-1.17,5.04-2.92,6.93-5.14.14-.16.29-.3.43-.46h0c.5-.67.98-1.38,1.44-2.08h0c.23-.36.44-.72.66-1.09h0s0-.06.04-.08c.5-.81.98-1.68,1.46-2.55,0-.02,0-.04,0-.06l.34-.63h0c.33-.61.64-1.24.95-1.86,0-.07.07-.14.11-.2.02-.02.03-.05.04-.08.75-1.48,1.49-2.98,2.22-4.47l.81-1.56c.05-.09.1-.18.14-.27,1.57-3.26,3.52-6.33,5.79-9.14h0c.48-.55.97-1.07,1.49-1.55h0c.52-.49,1.06-.95,1.63-1.38.22-.16.43-.33.66-.48s.59-.39.9-.58c.43-.26.88-.49,1.33-.71.28-.13.57-.24.86-.36.47-.19.96-.36,1.47-.51l.75-.2c.71-.17,1.43-.3,2.16-.37h0c.46,0,.94-.07,1.42-.07h.04c1.3,0,2.59.17,3.84.5,2.12.53,4.11,1.49,5.84,2.82l.1.08c.29.23.58.47.86.72l.21.2c.26.24.5.48.75.73l.24.28c.23.24.45.5.66.76l.23.31c.36.48.69.97,1,1.48l.28.46.31.62c.11.24.23.46.33.7s.17.41.25.61.2.52.28.81.12.41.19.6.15.58.22.86.09.39.12.59c.07.33.11.66.15.98,0,.17.05.33.07.5.05.5.07,1.02.07,1.54-.03,8.87-7.24,16.04-16.11,16.01-7.26-.02-13.61-4.92-15.47-11.94-.08-.29-.37-.46-.66-.38-.14.04-.27.13-.34.27l-2.86,5.65c-.25.47-.25,1.03,0,1.5,6.15,10.68,19.8,14.35,30.48,8.2,6.9-3.97,11.16-11.32,11.18-19.28.07-.84.02-1.56-.04-2.25Z"/>
        <path class="cls-3" d="M213.52,48.03h-12.04c-6.98.2-12.47,6.02-12.27,13,.03.97.17,1.93.42,2.87,1.46,5.7,6.83,9.42,12.67,9.42h8.95c3.4-.14,6.26,2.5,6.4,5.89,0,.12,0,.24,0,.36-.02,2.95-2.03,5.51-4.88,6.25h0l-23.98.06c-.36,0-.65.29-.65.65,0,0,0,0,0,0v1.28c0,2.3,1.86,4.16,4.16,4.16h18.98c6.89.11,12.56-5.39,12.67-12.28,0-.25,0-.49-.01-.74-.33-6.8-6.27-11.98-13.07-11.98h-8.7c-3.27.06-6.1-2.29-6.62-5.52-.44-3.49,2.03-6.68,5.52-7.12.14-.02.27-.03.41-.04h24.2c-2.85-3.88-7.35-6.2-12.17-6.26Z"/>
        <path class="cls-3" d="M254.44,50.42l-8.39,15.92c-.44.82-1.47,1.14-2.29.7-.3-.16-.54-.4-.7-.7l-8.42-15.97c-.74-1.44-2.22-2.34-3.83-2.34h-6.14c-.14,0-.26.1-.26.24,0,.09.04.17.11.22,2.17,1.64,3.96,3.73,5.25,6.13l11.13,19.26c.28.5.43,1.06.43,1.63v14.1c0,1.3,1.05,2.35,2.35,2.35h1.76c1.3,0,2.35-1.05,2.35-2.35v-14.12c0-.57.15-1.13.43-1.63l11.11-19.24c1.29-2.41,3.09-4.51,5.28-6.14.12-.07.16-.22.09-.33-.04-.07-.12-.12-.2-.12h-6.11c-1.66,0-3.19.92-3.96,2.39Z"/>
        <path class="cls-3" d="M284.38,66.89h-9.51c-3.51-.05-6.31-2.94-6.25-6.44.05-3.3,2.61-6.01,5.9-6.24h19.76c1.26,0,2.27-1.02,2.27-2.28v-1.63c0-1.28-1.03-2.32-2.31-2.34h-19.72c-6.79.23-12.19,5.79-12.21,12.59.03,6.95,5.61,12.6,12.56,12.71h10.91c3.45.83,5.58,4.31,4.74,7.76-.57,2.35-2.4,4.18-4.74,4.74h-19.8c-1.23.04-2.22,1.04-2.22,2.28v1.63c.01,1.24.98,2.26,2.22,2.34h18.31c6.93.02,12.56-5.57,12.58-12.5.02-6.93-5.57-12.56-12.5-12.58v-.03Z"/>
        <path class="cls-3" d="M185.56,90.96c-.47-.98-.71-2.06-.71-3.15v-22.94c-.36-9.52-8.37-16.95-17.89-16.59-9.02.34-16.25,7.57-16.59,16.59l.06,15.94c0,2.76-2.23,4.99-4.99,5h-1.38c-1.56,1.98-3.4,3.72-5.46,5.17-.25.18-.3.53-.12.77.1.14.27.23.44.23h4.7c2.23,0,4.42-.58,6.36-1.68,4.05-2.27,6.58-6.53,6.64-11.17,0,0,.04-11.75.04-13.98.38-5.85,5.1-10.47,10.95-10.72h.05c5.84.26,10.55,4.87,10.94,10.7,0,4.88.07,20.08.07,20.35,0,4.48,3.96,5.98,6.21,6.36.34.07.67-.16.73-.5.02-.13,0-.26-.04-.38Z"/>
        <path class="cls-2" d="M75.19,30.82h0c0-.42-.03-.84-.1-1.25-.69-3.98-4.02-6.96-8.05-7.19-1.36-.06-2.71-.31-4-.75-2.07-.78-3.96-1.99-5.53-3.56l-.16-.15s-.09-.11-.14-.16c-2.37-2.49-3.87-5.68-4.26-9.1,0-.29-.06-.59-.08-.88-.02-.72-.13-1.43-.33-2.12-.5-1.52-1.43-2.87-2.67-3.88-3.13-2.32-7.4-2.37-10.58-.12-3.68,2.87-4.34,8.18-1.47,11.86,1.39,1.79,3.45,2.94,5.7,3.2.23,0,.45,0,.68.04,3.55.4,6.86,1.99,9.39,4.51.05.06.11.1.16.15l.15.17.08.08c4.74,5.17,4.74,13.11,0,18.29l-.08.08-.15.17c-.06.06-.11.1-.16.15-2.53,2.52-5.84,4.11-9.39,4.51-.23,0-.45,0-.68.04-4.64.53-7.96,4.72-7.43,9.35.26,2.25,1.41,4.31,3.2,5.7,3.18,2.25,7.45,2.2,10.58-.11,1.25-1.01,2.17-2.36,2.68-3.89.2-.69.32-1.4.33-2.12,0-.29.05-.59.08-.88.39-3.42,1.88-6.61,4.26-9.1.05-.06.09-.11.14-.16l.16-.15c1.57-1.57,3.45-2.78,5.53-3.56,1.29-.44,2.64-.69,4-.75,4.03-.24,7.36-3.22,8.05-7.19.06-.41.1-.83.1-1.25Z"/>
        <path class="cls-2" d="M0,53.08h0c0,.42.04.84.1,1.25.69,3.97,4.02,6.95,8.04,7.19,1.36.06,2.71.31,4,.75,2.08.78,3.96,1.99,5.53,3.56l.15.15.14.15c2.38,2.49,3.87,5.69,4.26,9.11,0,.29.07.59.08.87.02.72.14,1.43.33,2.12.5,1.52,1.43,2.87,2.68,3.88,3.13,2.33,7.4,2.37,10.58.12,3.68-2.87,4.34-8.18,1.47-11.86-1.39-1.79-3.44-2.94-5.69-3.2-.23,0-.46,0-.68-.05-3.56-.37-6.88-1.95-9.42-4.46-.06-.06-.11-.1-.16-.15l-.15-.17-.07-.08c-4.76-5.17-4.77-13.13-.02-18.31l.07-.08c.06-.06.1-.12.15-.17s.11-.1.16-.15c2.53-2.52,5.84-4.11,9.39-4.51h.68c4.64-.53,7.96-4.73,7.42-9.36-.26-2.25-1.41-4.3-3.2-5.7-3.18-2.25-7.45-2.2-10.58.11-1.24,1.02-2.17,2.37-2.68,3.89-.2.69-.31,1.4-.33,2.12,0,.29-.05.59-.08.88-.38,3.42-1.88,6.61-4.26,9.1-.05.06-.09.11-.14.16s-.11.09-.15.15c-1.57,1.56-3.46,2.78-5.53,3.56-1.29.44-2.64.69-4,.75-3.99.26-7.29,3.2-7.99,7.14-.06.41-.09.83-.1,1.25Z"/>
      </g>
    </g>
  </g>
</svg>