<?xml version="1.0" encoding="UTF-8"?><svg id="Camada_2" xmlns="http://www.w3.org/2000/svg" viewBox="0 0 608.76 236.03"><defs><style>.cls-1,.cls-2{fill:#fff;stroke-width:0px;}.cls-2{fill-rule:evenodd;}</style></defs><g id="Camada_1-2"><path class="cls-1" d="M96.93,201c0,1.91-.58,3.35-1.74,4.3-1.16.96-2.39,1.44-3.7,1.44s-2.52-.48-3.62-1.44c-1.11-.95-1.66-2.39-1.66-4.3v-34.88c0-5.33-1.36-9.89-4.08-13.66-2.72-3.78-6.79-5.66-12.23-5.66-5.13,0-9.11,1.99-11.93,5.96-2.82,3.98-4.23,8.58-4.23,13.81v34.42c0,2.01-.55,3.5-1.66,4.45-1.11.96-2.32,1.43-3.62,1.43-1.41,0-2.64-.48-3.7-1.43-1.06-.96-1.59-2.44-1.59-4.45v-34.42c0-5.13-1.38-9.71-4.15-13.74-2.77-4.02-6.82-6.04-12.15-6.04s-9.54,1.89-12.31,5.66c-2.77,3.78-4.15,8.33-4.15,13.66v34.88c0,2.01-.55,3.5-1.66,4.45-1.11.96-2.32,1.43-3.62,1.43s-2.49-.48-3.55-1.43c-1.06-.96-1.59-2.44-1.59-4.45v-34.88c0-4.83.78-9.11,2.34-12.83,1.56-3.72,3.6-6.84,6.12-9.36,2.51-2.51,5.38-4.43,8.61-5.74,3.22-1.31,6.44-1.96,9.66-1.96,4.83,0,9.06,1.16,12.68,3.47,3.62,2.32,6.74,5.28,9.36,8.91,2.51-3.72,5.41-6.72,8.68-8.98,3.27-2.26,7.37-3.4,12.31-3.4,7.95,0,14.47,2.57,19.55,7.7,5.08,5.13,7.62,12.53,7.62,22.19v34.88Z"/><path class="cls-1" d="M172.12,202.51c0,7.05-1.13,12.76-3.4,17.14s-5.11,7.78-8.53,10.19c-3.42,2.42-7.15,4.05-11.17,4.91-4.03.85-7.8,1.28-11.32,1.28-5.74,0-11.12-1.08-16.16-3.25-5.03-2.17-9.21-4.81-12.53-7.93-1.61-1.41-2.47-2.87-2.57-4.38-.1-1.51.25-2.72,1.06-3.62.8-1.01,1.89-1.63,3.25-1.89,1.36-.25,2.64.13,3.85,1.13,2.51,2.11,5.74,4.18,9.66,6.19,3.93,2.01,8.4,3.02,13.44,3.02,1.91,0,4.2-.15,6.87-.45,2.67-.3,5.21-1.21,7.62-2.72,2.42-1.51,4.48-3.8,6.19-6.87,1.71-3.07,2.57-7.32,2.57-12.76v-3.32c-2.62,2.42-5.81,4.2-9.59,5.36-3.77,1.16-7.78,1.74-12,1.74-4.73,0-9.08-.83-13.06-2.49-3.98-1.66-7.42-4-10.34-7.02-3.02-2.92-5.34-6.36-6.95-10.34-1.61-3.97-2.42-8.28-2.42-12.91v-30.5c0-1.91.53-3.35,1.59-4.3,1.06-.96,2.24-1.43,3.55-1.43s2.52.48,3.62,1.43c1.11.96,1.66,2.39,1.66,4.3v30.5c0,6.34,2.14,11.6,6.42,15.78,4.28,4.18,9.59,6.27,15.93,6.27,3.02,0,5.86-.55,8.53-1.66,2.67-1.11,5.01-2.62,7.02-4.53,2.01-2.01,3.62-4.35,4.83-7.02,1.21-2.67,1.81-5.61,1.81-8.83v-30.5c0-1.91.53-3.35,1.59-4.3,1.06-.96,2.29-1.43,3.7-1.43,1.31,0,2.52.48,3.62,1.43,1.11.96,1.66,2.39,1.66,4.3v59.49Z"/><path class="cls-1" d="M267.24,183.94c-4.53,7.35-10.37,12.89-17.51,16.61-7.15,3.72-14.65,5.59-22.5,5.59-6.74,0-13.01-1.21-18.8-3.62-5.79-2.42-10.79-5.79-15.02-10.12-4.23-4.23-7.53-9.21-9.89-14.95-2.37-5.74-3.55-11.93-3.55-18.57s1.23-12.56,3.7-18.34c2.46-5.79,5.81-10.8,10.04-15.02s9.36-7.75,15.1-10.27c5.74-2.52,11.88-3.78,18.42-3.78,8.15,0,15.8,2.04,22.95,6.12,7.14,4.08,12.83,9.39,17.06,15.93.8,1.51.98,2.92.53,4.23-.45,1.31-1.28,2.32-2.49,3.02-1.11.6-2.37.81-3.78.6-1.41-.2-2.57-1.06-3.47-2.57-3.92-5.74-8.56-9.99-13.89-12.76-5.34-2.77-10.97-4.15-16.91-4.15-5.34,0-10.24.98-14.72,2.94-4.48,1.96-8.38,4.6-11.7,7.93-3.32,3.32-5.89,7.22-7.7,11.7-1.81,4.48-2.72,9.29-2.72,14.42s.93,10.09,2.79,14.57c1.86,4.48,4.4,8.33,7.62,11.55,3.32,3.32,7.22,5.89,11.7,7.7,4.48,1.81,9.38,2.72,14.72,2.72,6.54,0,12.48-1.51,17.82-4.53s9.61-7.25,12.83-12.68c.91-1.51,2.06-2.34,3.47-2.49,1.41-.15,2.72.13,3.93.83,1.11.71,1.94,1.74,2.49,3.1.55,1.36.38,2.79-.53,4.3Z"/><path class="cls-1" d="M341.07,171.4c0,5.13-.96,9.84-2.87,14.12-1.91,4.28-4.43,7.98-7.55,11.1-3.22,3.12-6.97,5.56-11.25,7.32-4.28,1.76-8.83,2.64-13.66,2.64s-9.51-.88-13.74-2.64c-4.23-1.76-7.95-4.2-11.17-7.32-3.12-3.12-5.59-6.84-7.4-11.17-1.81-4.33-2.72-9.01-2.72-14.04,0-4.73.88-9.23,2.64-13.51,1.76-4.28,4.25-7.98,7.47-11.1,3.12-3.22,6.82-5.76,11.1-7.63,4.28-1.86,8.88-2.79,13.81-2.79s9.38.93,13.66,2.79c4.28,1.86,8.03,4.36,11.25,7.47,3.22,3.22,5.76,6.95,7.62,11.17,1.86,4.23,2.79,8.76,2.79,13.59ZM330.35,171.4c0-3.42-.66-6.62-1.96-9.59-1.31-2.97-3.07-5.56-5.28-7.78-2.22-2.11-4.81-3.82-7.78-5.13-2.97-1.31-6.17-1.96-9.59-1.96s-6.77.66-9.74,1.96c-2.97,1.31-5.56,3.07-7.78,5.28s-3.95,4.81-5.21,7.78c-1.26,2.97-1.89,6.12-1.89,9.44,0,3.53.63,6.79,1.89,9.81,1.26,3.02,2.99,5.64,5.21,7.85,2.11,2.22,4.68,3.95,7.7,5.21,3.02,1.26,6.29,1.89,9.81,1.89s6.62-.63,9.59-1.89c2.97-1.26,5.56-2.99,7.78-5.21,2.21-2.21,3.97-4.83,5.28-7.85,1.31-3.02,1.96-6.29,1.96-9.81Z"/><path class="cls-1" d="M407.96,200.85c0,2.01-.55,3.5-1.66,4.45-1.11.96-2.32,1.44-3.62,1.44s-2.49-.48-3.55-1.44c-1.06-.95-1.59-2.44-1.59-4.45v-32.16c0-6.24-1.91-11.52-5.74-15.85-3.83-4.33-8.81-6.49-14.95-6.49s-11.37,2.17-15.1,6.49c-3.73,4.33-5.59,9.51-5.59,15.55v32.46c0,2.01-.55,3.5-1.66,4.45-1.11.96-2.32,1.44-3.62,1.44s-2.49-.48-3.55-1.44c-1.06-.95-1.58-2.44-1.58-4.45v-32.61c0-4.83.83-9.23,2.49-13.21,1.66-3.97,3.9-7.37,6.72-10.19,2.92-2.82,6.24-5.01,9.96-6.57,3.72-1.56,7.7-2.34,11.93-2.34,4.53,0,8.68.86,12.46,2.57,3.78,1.71,7.07,4.08,9.89,7.1,2.72,2.92,4.85,6.39,6.42,10.42,1.56,4.03,2.34,8.3,2.34,12.83v32.01Z"/><path class="cls-1" d="M473.48,186.65c0,3.52-.9,6.62-2.72,9.28-1.81,2.67-4.13,4.91-6.95,6.72-2.92,1.81-6.17,3.17-9.74,4.08-3.57.91-7.12,1.36-10.64,1.36-2.42,0-5.08-.28-8-.83-2.92-.55-5.84-1.43-8.76-2.64-2.82-1.21-5.49-2.72-8-4.53-2.52-1.81-4.58-4.02-6.19-6.64-1.11-1.81-1.49-3.42-1.13-4.83.35-1.41,1.08-2.52,2.19-3.32,1.01-.7,2.21-.98,3.62-.83,1.41.15,2.62.88,3.62,2.19,2.31,3.32,5.41,6.01,9.29,8.08,3.87,2.06,8.38,3.1,13.51,3.1,2.01,0,4.18-.2,6.49-.6,2.31-.4,4.43-1.06,6.34-1.96,1.91-.91,3.5-2.06,4.76-3.47,1.26-1.41,1.89-3.12,1.89-5.13,0-3.12-2.01-5.51-6.04-7.17-4.03-1.66-9.81-3.3-17.36-4.91-4.83-1.11-8.71-2.34-11.63-3.7-2.92-1.36-5.23-2.79-6.94-4.3-1.61-1.61-2.69-3.32-3.25-5.13-.55-1.81-.83-3.72-.83-5.74,0-5.44,2.36-9.99,7.1-13.66,4.73-3.67,10.62-5.51,17.67-5.51,5.74,0,10.74,1.08,15.02,3.25,4.28,2.17,7.93,5.46,10.95,9.89,1.01,1.61,1.36,3.15,1.06,4.61-.3,1.46-.96,2.54-1.96,3.25-1.01.81-2.24,1.11-3.7.91-1.46-.2-2.79-1.21-4-3.02-2.11-3.02-4.68-5.21-7.7-6.57-3.02-1.36-6.24-2.04-9.66-2.04-3.72,0-6.94.68-9.66,2.04-2.72,1.36-4.08,3.6-4.08,6.72,0,2.62,1.21,4.58,3.62,5.89,2.42,1.31,6.94,2.62,13.59,3.92,9.56,2.01,16.66,4.66,21.29,7.93,4.63,3.27,6.94,7.73,6.94,13.36Z"/><path class="cls-1" d="M542.78,202.51c0,7.05-1.13,12.76-3.4,17.14s-5.11,7.78-8.53,10.19c-3.42,2.42-7.15,4.05-11.17,4.91-4.03.85-7.8,1.28-11.32,1.28-5.74,0-11.12-1.08-16.15-3.25-5.03-2.17-9.21-4.81-12.53-7.93-1.61-1.41-2.47-2.87-2.57-4.38-.1-1.51.25-2.72,1.06-3.62.8-1.01,1.89-1.63,3.25-1.89,1.36-.25,2.64.13,3.85,1.13,2.52,2.11,5.74,4.18,9.66,6.19,3.92,2.01,8.4,3.02,13.44,3.02,1.91,0,4.2-.15,6.87-.45,2.67-.3,5.21-1.21,7.62-2.72,2.42-1.51,4.48-3.8,6.19-6.87,1.71-3.07,2.57-7.32,2.57-12.76v-3.32c-2.62,2.42-5.81,4.2-9.59,5.36-3.77,1.16-7.78,1.74-12,1.74-4.73,0-9.09-.83-13.06-2.49-3.98-1.66-7.43-4-10.34-7.02-3.02-2.92-5.34-6.36-6.95-10.34-1.61-3.97-2.42-8.28-2.42-12.91v-30.5c0-1.91.53-3.35,1.58-4.3,1.06-.96,2.24-1.43,3.55-1.43s2.51.48,3.62,1.43c1.11.96,1.66,2.39,1.66,4.3v30.5c0,6.34,2.14,11.6,6.42,15.78,4.28,4.18,9.59,6.27,15.93,6.27,3.02,0,5.86-.55,8.53-1.66,2.67-1.11,5.01-2.62,7.02-4.53,2.01-2.01,3.62-4.35,4.83-7.02,1.21-2.67,1.81-5.61,1.81-8.83v-30.5c0-1.91.53-3.35,1.59-4.3,1.06-.96,2.29-1.43,3.7-1.43,1.31,0,2.52.48,3.62,1.43,1.11.96,1.66,2.39,1.66,4.3v59.49Z"/><path class="cls-1" d="M608.76,186.65c0,3.52-.9,6.62-2.72,9.28-1.81,2.67-4.13,4.91-6.95,6.72-2.92,1.81-6.17,3.17-9.74,4.08-3.57.91-7.12,1.36-10.64,1.36-2.42,0-5.08-.28-8-.83-2.92-.55-5.84-1.43-8.76-2.64-2.82-1.21-5.49-2.72-8-4.53-2.52-1.81-4.58-4.02-6.19-6.64-1.11-1.81-1.49-3.42-1.13-4.83.35-1.41,1.08-2.52,2.19-3.32,1.01-.7,2.21-.98,3.62-.83,1.41.15,2.62.88,3.62,2.19,2.31,3.32,5.41,6.01,9.29,8.08,3.87,2.06,8.38,3.1,13.51,3.1,2.01,0,4.18-.2,6.49-.6,2.31-.4,4.43-1.06,6.34-1.96,1.91-.91,3.5-2.06,4.76-3.47,1.26-1.41,1.89-3.12,1.89-5.13,0-3.12-2.01-5.51-6.04-7.17-4.03-1.66-9.81-3.3-17.36-4.91-4.83-1.11-8.71-2.34-11.63-3.7-2.92-1.36-5.23-2.79-6.94-4.3-1.61-1.61-2.69-3.32-3.25-5.13-.55-1.81-.83-3.72-.83-5.74,0-5.44,2.36-9.99,7.1-13.66,4.73-3.67,10.62-5.51,17.67-5.51,5.74,0,10.74,1.08,15.02,3.25,4.28,2.17,7.93,5.46,10.95,9.89,1.01,1.61,1.36,3.15,1.06,4.61-.3,1.46-.96,2.54-1.96,3.25-1.01.81-2.24,1.11-3.7.91-1.46-.2-2.79-1.21-4-3.02-2.11-3.02-4.68-5.21-7.7-6.57-3.02-1.36-6.24-2.04-9.66-2.04-3.72,0-6.94.68-9.66,2.04-2.72,1.36-4.08,3.6-4.08,6.72,0,2.62,1.21,4.58,3.62,5.89,2.42,1.31,6.94,2.62,13.59,3.92,9.56,2.01,16.66,4.66,21.29,7.93,4.63,3.27,6.94,7.73,6.94,13.36Z"/><path class="cls-2" d="M99.11,68.52c-13,7.7-26.42,16.14-28.8,18.87-3.37,3.87-2.99,9.77.89,13.15,3.87,3.37,9.78,2.96,13.15-.91,2.38-2.73,8.9-17.18,14.76-31.11h0ZM113.77,58.79c-2.72,6.81-16.53,41.09-21.98,47.34-6.95,7.98-19.09,8.81-27.08,1.86-2.43-2.12-4.2-4.74-5.28-7.56-2.47-6.43-1.4-13.98,3.42-19.52,5.45-6.25,37.51-24.62,43.89-28.24,1.83-1.03,4.11-.81,5.68.57,1.59,1.39,2.13,3.59,1.35,5.55h0Z"/><path class="cls-1" d="M170.23,84.15c-.12,2.84-2.48,5.11-5.32,5.11-2.84,0-5.21-2.27-5.32-5.11,0-40.32-33.18-73.5-73.5-73.5S12.58,43.62,12.58,84.15c-.54,2.5-2.77,4.3-5.32,4.3s-4.79-1.8-5.32-4.3c0-46.16,37.99-84.15,84.15-84.15s84.15,37.75,84.15,84.15Z"/></g></svg>