<?xml version="1.0" encoding="UTF-8"?>
<svg id="Camada_1" data-name="Camada 1" xmlns="http://www.w3.org/2000/svg" version="1.1" viewBox="0 0 364.9 113">
  <defs>
    <style>
      .cls-1 {
        fill: #fff;
        stroke-width: 0px;
      }
    </style>
  </defs>
  <g id="Camada_2" data-name="Camada 2">
    <g id="Camada_1-2" data-name="Camada 1-2">
      <ellipse class="cls-1" cx="152.5" cy="85.7" rx="10.3" ry="10.2" transform="translate(-15.9 132.9) rotate(-45)"/>
      <path class="cls-1" d="M179.5,83c0-.3,0-.6-.1-.9,0-.6-.1-1.1-.3-1.7,0-.3-.2-.7-.2-1-.1-.5-.2-1-.4-1.5s-.2-.7-.4-1.1-.3-.9-.5-1.3-.3-.8-.5-1.1-.4-.8-.6-1.2-.4-.8-.6-1.1-.4-.7-.6-1-.5-.8-.8-1.2-.4-.5-.6-.8c-.3-.4-.6-.8-1-1.2l-.3-.3c-2-2.3-4.3-4.2-6.8-5.7h-.1c-.6-.5-1.3-.8-1.9-1.1h-.2c-.6-.4-1.3-.7-2-1h-.2c-.7-.3-1.4-.6-2.1-.8h-.2c-2.3-.6-4.6-1-7-1h0c-1.5,0-3.1.1-4.6.4h-.7c-1.3.4-2.5.7-3.8,1.1h-.2c-1.3.5-2.6,1.1-3.8,1.8h0c-.6.3-1.1.7-1.7,1h0c-.9.6-1.7,1.2-2.5,1.9-2.2,1.8-4.2,4-5.7,6.4-2.5,3.6-4.8,7.5-6.8,11.4h0c0,0-2.1,4.2-2.1,4.2l-.2.4-.7,1.3c-.5,1-1,1.9-1.6,2.9,0,.2-.2.3-.2.5-.6,1.1-1.2,2.1-1.8,3.2h0v.2c-.8,1.1-1.5,2.2-2.2,3.2l-.2.2c-1.3,1.4-2.7,2.7-4.3,3.7-3.1,1.9-6.7,3-10.4,3.1-8.5,0-16-5.5-18.5-13.6-.7-2.2-.9-4.4-.8-6.7.5-10.5,9.6-18.6,20.1-18.6h14.1c1.5,0,2.7-1.2,2.7-2.7v-2c0-1.6-1.3-2.8-2.8-2.8h-14.7c-14.9,0-27,12.1-27,27h0c0,14.9,12.1,27,27,27,4.1,0,8.1-.9,11.7-2.6,3.3-1.4,6.2-3.6,8.5-6.3.2-.2.4-.4.5-.6h0c.6-.8,1.2-1.7,1.8-2.6h0c.3-.4.5-.9.8-1.3h0s0,0,0,0c.6-1,1.2-2.1,1.8-3.1,0,0,0,0,0,0l.4-.8h0c.4-.8.8-1.5,1.2-2.3,0,0,0-.2.1-.2,0,0,0,0,0,0,.9-1.8,1.8-3.7,2.7-5.5l1-1.9c0-.1.1-.2.2-.3,1.9-4,4.3-7.8,7.1-11.2h0c.6-.7,1.2-1.3,1.8-1.9h0c.6-.6,1.3-1.2,2-1.7.3-.2.5-.4.8-.6s.7-.5,1.1-.7c.5-.3,1.1-.6,1.6-.9.4-.2.7-.3,1.1-.4.6-.2,1.2-.4,1.8-.6l.9-.2c.9-.2,1.8-.4,2.6-.5h0c.6,0,1.1,0,1.7,0h0c1.6,0,3.2.2,4.7.6,2.6.7,5,1.8,7.2,3.5h.1c.4.4.7.7,1.1,1l.3.2c.3.3.6.6.9.9l.3.3c.3.3.6.6.8.9l.3.4c.4.6.9,1.2,1.2,1.8l.3.6.4.8c.1.3.3.6.4.9s.2.5.3.8.2.6.4,1,.1.5.2.7.2.7.3,1.1.1.5.1.7c0,.4.1.8.2,1.2,0,.2,0,.4,0,.6,0,.6,0,1.2,0,1.9,0,10.9-8.9,19.7-19.8,19.7-8.9,0-16.7-6-19-14.7,0-.4-.5-.6-.8-.5-.2,0-.3.2-.4.3l-3.5,6.9c-.3.6-.3,1.3,0,1.8,7.6,13.1,24.3,17.6,37.4,10.1,8.5-4.9,13.7-13.9,13.7-23.7,0-1,0-1.9,0-2.8Z"/>
      <path class="cls-1" d="M262.4,59h-14.8c-8.6.2-15.3,7.4-15.1,16,0,1.2.2,2.4.5,3.5,1.8,7,8.4,11.6,15.6,11.6h11c4.2-.2,7.7,3.1,7.9,7.2,0,.1,0,.3,0,.4,0,3.6-2.5,6.8-6,7.7h-29.5c-.4,0-.8.4-.8.9,0,0,0,0,0,0v1.6c0,2.8,2.3,5.1,5.1,5.1h23.3c8.5.1,15.4-6.6,15.6-15.1,0-.3,0-.6,0-.9-.4-8.4-7.7-14.7-16.1-14.7h-10.7c-4,0-7.5-2.8-8.1-6.8-.5-4.3,2.5-8.2,6.8-8.8.2,0,.3,0,.5,0h29.7c-3.5-4.8-9-7.6-14.9-7.7Z"/>
      <path class="cls-1" d="M312.6,61.9l-10.3,19.6c-.5,1-1.8,1.4-2.8.9-.4-.2-.7-.5-.9-.9l-10.4-19.6c-.9-1.8-2.7-2.9-4.7-2.9h-7.5c-.2,0-.3.1-.3.3,0,.1,0,.2.1.3,2.7,2,4.9,4.6,6.5,7.5l13.7,23.7c.3.6.5,1.3.5,2v17.3c0,1.6,1.3,2.9,2.9,2.9h2.2c1.6,0,2.9-1.3,2.9-2.9v-17.3c0-.7.2-1.4.5-2l13.6-23.6c1.6-3,3.8-5.5,6.5-7.5.1,0,.2-.3.1-.4,0,0-.1-.1-.3-.2h-7.5c-2,0-3.9,1.1-4.9,2.9Z"/>
      <path class="cls-1" d="M349.4,82.2h-11.7c-4.3,0-7.7-3.6-7.7-7.9,0-4.1,3.2-7.4,7.3-7.7h24.3c1.5,0,2.8-1.3,2.8-2.8v-2c0-1.6-1.3-2.9-2.8-2.9h-24.2c-8.3.3-15,7.1-15,15.5,0,8.5,6.9,15.5,15.4,15.6h13.4c4.2,1,6.9,5.3,5.8,9.5-.7,2.9-2.9,5.1-5.8,5.8h-24.3c-1.5,0-2.7,1.3-2.7,2.8v2c0,1.5,1.2,2.8,2.7,2.9h22.5c8.5,0,15.4-6.8,15.5-15.4,0-8.5-6.8-15.4-15.4-15.5h0Z"/>
      <path class="cls-1" d="M228,111.8c-.6-1.2-.9-2.5-.9-3.9v-28.2c-.4-11.7-10.3-20.8-22-20.4-11.1.4-20,9.3-20.4,20.4v19.6c0,3.4-2.7,6.1-6.1,6.1h-1.7c-1.9,2.4-4.2,4.6-6.7,6.3-.3.2-.4.6-.2.9.1.2.3.3.5.3h5.8c2.7,0,5.4-.7,7.8-2.1,5-2.8,8.1-8,8.2-13.7,0,0,0-14.4,0-17.2.5-7.2,6.3-12.9,13.5-13.2h0c7.2.3,13,6,13.4,13.2,0,6,0,24.7,0,25,0,5.5,4.9,7.3,7.6,7.8.4,0,.8-.2.9-.6,0-.2,0-.3,0-.5Z"/>
      <path class="cls-1" d="M92.4,37.8h0c0-.5,0-1-.1-1.5-.8-4.9-4.9-8.5-9.9-8.8-1.7,0-3.3-.4-4.9-.9-2.5-1-4.9-2.4-6.8-4.4l-.2-.2c0,0-.1-.1-.2-.2-2.9-3.1-4.8-7-5.2-11.2,0-.4,0-.7,0-1.1,0-.9-.2-1.8-.4-2.6-.6-1.9-1.8-3.5-3.3-4.8-3.8-2.9-9.1-2.9-13-.2-4.5,3.5-5.3,10-1.8,14.6,1.7,2.2,4.2,3.6,7,3.9.3,0,.5,0,.8,0,4.4.5,8.4,2.4,11.5,5.5,0,0,.1.1.2.2l.2.2h0c5.8,6.5,5.8,16.2,0,22.6h0c0,0-.2.3-.2.3,0,0-.1.1-.2.2-3.1,3.1-7.2,5-11.5,5.5-.3,0-.5,0-.8,0-5.7.7-9.8,5.8-9.1,11.5.3,2.8,1.7,5.3,3.9,7,3.9,2.8,9.2,2.7,13-.1,1.5-1.2,2.7-2.9,3.3-4.8.3-.8.4-1.7.4-2.6,0-.4,0-.7,0-1.1.5-4.2,2.3-8.1,5.2-11.2,0,0,.1-.1.2-.2l.2-.2c1.9-1.9,4.2-3.4,6.8-4.4,1.6-.5,3.2-.8,4.9-.9,4.9-.3,9-4,9.9-8.8,0-.5.1-1,.1-1.5Z"/>
      <path class="cls-1" d="M0,65.2h0c0,.5,0,1,.1,1.5.8,4.9,4.9,8.5,9.9,8.8,1.7,0,3.3.4,4.9.9,2.6,1,4.9,2.4,6.8,4.4l.2.2.2.2c2.9,3.1,4.8,7,5.2,11.2,0,.4,0,.7.1,1.1,0,.9.2,1.8.4,2.6.6,1.9,1.8,3.5,3.3,4.8,3.8,2.9,9.1,2.9,13,.2,4.5-3.5,5.3-10,1.8-14.6-1.7-2.2-4.2-3.6-7-3.9-.3,0-.6,0-.8,0-4.4-.5-8.5-2.4-11.6-5.5,0,0-.1-.1-.2-.2l-.2-.2h0c-5.9-6.5-5.9-16.2,0-22.6h0c0-.2.1-.2.2-.3s.1-.1.2-.2c3.1-3.1,7.2-5.1,11.5-5.5h.8c5.7-.7,9.8-5.8,9.1-11.5-.3-2.8-1.7-5.3-3.9-7-3.9-2.8-9.2-2.7-13,.1-1.5,1.3-2.7,2.9-3.3,4.8-.2.8-.4,1.7-.4,2.6,0,.4,0,.7-.1,1.1-.5,4.2-2.3,8.1-5.2,11.2,0,0-.1.1-.2.2s-.1.1-.2.2c-1.9,1.9-4.2,3.4-6.8,4.4-1.6.5-3.2.8-4.9.9-4.9.3-9,3.9-9.8,8.8,0,.5-.1,1-.1,1.5Z"/>
    </g>
  </g>
</svg>