<?xml version="1.0" encoding="UTF-8"?>
<svg id="Camada_2" data-name="Camada 2" xmlns="http://www.w3.org/2000/svg" viewBox="0 0 1728.76 340.77">
  <defs>
    <style>
      .cls-1 {
        fill: #fff;
        stroke-width: 0px;
      }
    </style>
  </defs>
  <g id="Camada_1-2" data-name="Camada 1">
    <g>
      <g>
        <path class="cls-1" d="M1147.84,221.88v-21.03c0-13.12,6.83-21.66,20.85-21.66,7.28,0,13.57,2.61,17.34,9.71.27.54.45,1.08.45,1.62,0,1.98-1.62,3.59-3.6,3.59-.9,0-2.15-.27-2.96-1.53-2.43-3.68-5.3-6.11-11.23-6.11-9.61,0-13.21,5.57-13.21,15.28v19.23c0,9.71,3.59,15.28,13.21,15.28,4.67,0,8.63-2.25,11.14-6.02.72-1.08,1.62-2.07,3.23-2.07,1.98,0,3.59,1.62,3.59,3.59,0,.63-.18,1.17-.63,1.98-2.97,5.21-8.27,9.79-17.34,9.79-14.02,0-20.85-8.54-20.85-21.66Z"/>
        <path class="cls-1" d="M1201.32,221.88v-21.03c0-13.12,6.83-21.66,20.85-21.66s20.85,8.54,20.85,21.66v21.03c0,13.12-6.83,21.66-20.85,21.66s-20.85-8.54-20.85-21.66ZM1235.38,220.98v-19.23c0-9.7-3.5-15.28-13.21-15.28s-13.21,5.57-13.21,15.28v19.23c0,9.71,3.5,15.28,13.21,15.28s13.21-5.57,13.21-15.28Z"/>
        <path class="cls-1" d="M1263.25,240.03v-57.33c0-1.98,1.53-3.51,3.41-3.51,1.44,0,2.34.72,3.15,1.98l28.84,46.19h.45v-44.66c0-1.98,1.53-3.51,3.5-3.51s3.5,1.53,3.5,3.51v57.24c0,2.07-1.89,3.59-3.95,3.59-1.53,0-2.7-.72-3.41-1.89l-28.04-45.47h-.45v43.85c0,1.98-1.53,3.5-3.5,3.5s-3.5-1.53-3.5-3.5Z"/>
        <path class="cls-1" d="M1326.26,239.13c-1.17-.72-1.89-1.89-1.89-3.23,0-1.98,1.62-3.59,3.59-3.59.72,0,1.17.18,1.98.63,3.59,1.98,7.82,3.32,12.94,3.32,9.35,0,12.4-4.76,12.4-10.78,0-19.23-30.1-7.1-30.1-29.47,0-10.78,6.38-16.8,18.15-16.8,6.29,0,11.77,2.07,14.83,4.23,1.08.81,1.89,1.8,1.89,3.05,0,1.8-1.53,3.33-3.5,3.33-.72,0-1.44-.27-2.25-.72-3.95-1.98-7.73-2.79-10.96-2.79-8.81,0-10.7,4.58-10.7,9.61,0,14.38,30.1,4.94,30.1,28.93,0,10.24-5.57,18.69-19.86,18.69-5.57,0-11.5-1.26-16.62-4.4Z"/>
        <path class="cls-1" d="M1381.45,223.05v-40.17c0-2.07,1.71-3.68,3.77-3.68s3.86,1.71,3.86,3.86v39.09c0,8.45,2.7,14.11,12.85,14.11s12.85-5.66,12.85-14.11v-39.27c0-2.07,1.71-3.68,3.77-3.68s3.86,1.71,3.86,3.86v39.99c0,13.12-6.92,20.49-20.49,20.49s-20.49-7.37-20.49-20.49Z"/>
        <path class="cls-1" d="M1444.91,239.04v-55.98c0-2.16,1.71-3.86,3.77-3.86s3.77,1.62,3.86,3.86v52.75h21.39c1.98,0,3.5,1.53,3.5,3.5s-1.53,3.5-3.5,3.5h-25.43c-1.89,0-3.59-1.62-3.59-3.78Z"/>
        <path class="cls-1" d="M1498.39,239.49v-52.57h-14.02c-2.07,0-3.5-1.53-3.5-3.5s1.44-3.5,3.5-3.5h35.59c2.24,0,3.5,1.53,3.5,3.5s-1.44,3.5-3.5,3.5h-13.93v52.84c0,2.07-1.71,3.78-3.86,3.78s-3.77-1.71-3.77-4.04Z"/>
        <path class="cls-1" d="M1537.04,221.88v-21.03c0-13.12,6.83-21.66,20.85-21.66s20.85,8.54,20.85,21.66v21.03c0,13.12-6.83,21.66-20.85,21.66s-20.85-8.54-20.85-21.66ZM1571.1,220.98v-19.23c0-9.7-3.5-15.28-13.21-15.28s-13.21,5.57-13.21,15.28v19.23c0,9.71,3.5,15.28,13.21,15.28s13.21-5.57,13.21-15.28Z"/>
        <path class="cls-1" d="M1598.98,239.76v-55.98c0-2.16,1.71-3.86,3.77-3.86h13.66c13.12,0,21.12,5.21,21.12,19.14,0,12.49-7.28,16.53-11.77,17.97l10.87,20.4c.45.81.63,1.62.63,2.24,0,2.16-1.71,3.87-3.86,3.87-1.8,0-2.97-1.08-3.68-2.52l-11.5-22.82h-11.59v21.75c0,1.98-1.71,3.59-3.87,3.59s-3.77-1.71-3.77-3.78ZM1616.86,211.19c8.18,0,12.85-3.15,12.85-12.13,0-9.62-4.85-12.13-13.84-12.13h-9.25v24.26h10.24Z"/>
        <path class="cls-1" d="M1657.49,239.76v-56.7c0-2.16,1.71-3.86,3.77-3.86s3.86,1.62,3.86,3.86v56.7c0,2.07-1.8,3.78-3.86,3.78s-3.77-1.71-3.77-3.78Z"/>
        <path class="cls-1" d="M1682.93,239.76c0-.63.18-1.26.36-1.8l18.06-55.08c.54-1.8,1.71-2.96,3.68-2.96h1.62c1.98,0,3.14,1.17,3.68,2.96l18.06,55.26c.18.45.36,1.17.36,1.62,0,2.07-1.62,3.78-3.86,3.78-1.8,0-3.14-1.26-3.68-2.88l-4.22-13.48h-22.28l-4.22,13.48c-.45,1.62-1.98,2.88-3.77,2.88-2.16,0-3.77-1.71-3.77-3.78ZM1715.1,220.08l-9.08-29.03h-.36l-9.07,29.03h18.51Z"/>
        <path class="cls-1" d="M1146.14,322.9c0-7.46,2.33-14.02,12.22-17.61l-2.79-3.32c-3.23-3.77-4.85-7.91-4.85-11.86,0-8.8,7.01-14.56,16.44-14.56,4.58,0,8.99,1.08,12.67,3.05,1.26.63,2.07,1.89,2.07,3.24,0,1.89-1.62,3.5-3.59,3.5-.54,0-1.26-.27-1.89-.54-2.88-1.26-5.93-2.07-9.26-2.07-5.48,0-8.98,2.88-8.98,7.37,0,2.52.9,4.76,3.95,8.36l19.68,22.73c1.44-2.25,2.88-6.29,3.86-12.58.27-1.62,1.44-3.06,3.41-3.06s3.59,1.44,3.41,3.41c-.72,7.01-2.88,13.12-6.02,17.88l6.11,6.92c.54.63,1.08,1.44,1.08,2.61,0,1.98-1.53,3.5-3.6,3.5-1.17,0-2.15-.54-2.88-1.35l-4.76-5.75c-3.86,4.49-8.54,7.1-17.34,7.1-10.78,0-18.96-6.02-18.96-16.98ZM1178.22,327.66l-15.46-17.43c-7.82,2.25-9.16,7.28-9.16,11.95,0,6.56,3.95,10.78,11.59,10.78s11.05-2.79,13.03-5.3Z"/>
        <path class="cls-1" d="M1238.45,335.48c-1.17-.72-1.89-1.89-1.89-3.23,0-1.98,1.62-3.59,3.59-3.59.72,0,1.17.18,1.98.63,3.59,1.98,7.82,3.32,12.94,3.32,9.35,0,12.4-4.76,12.4-10.78,0-19.23-30.1-7.1-30.1-29.47,0-10.78,6.38-16.8,18.15-16.8,6.29,0,11.77,2.07,14.83,4.22,1.08.81,1.89,1.8,1.89,3.05,0,1.8-1.53,3.33-3.5,3.33-.72,0-1.44-.27-2.25-.72-3.95-1.98-7.73-2.79-10.96-2.79-8.81,0-10.69,4.58-10.69,9.61,0,14.38,30.1,4.94,30.1,28.93,0,10.24-5.57,18.69-19.86,18.69-5.57,0-11.5-1.26-16.62-4.4Z"/>
        <path class="cls-1" d="M1293.64,336.11v-56.7c0-2.16,1.71-3.86,3.77-3.86s3.86,1.62,3.86,3.86v56.7c0,2.07-1.8,3.77-3.86,3.77s-3.77-1.71-3.77-3.77Z"/>
        <path class="cls-1" d="M1321.41,335.48c-1.17-.72-1.89-1.89-1.89-3.23,0-1.98,1.62-3.59,3.59-3.59.72,0,1.17.18,1.98.63,3.59,1.98,7.82,3.32,12.94,3.32,9.35,0,12.4-4.76,12.4-10.78,0-19.23-30.1-7.1-30.1-29.47,0-10.78,6.38-16.8,18.15-16.8,6.29,0,11.77,2.07,14.83,4.22,1.08.81,1.89,1.8,1.89,3.05,0,1.8-1.53,3.33-3.5,3.33-.72,0-1.44-.27-2.25-.72-3.95-1.98-7.73-2.79-10.96-2.79-8.81,0-10.7,4.58-10.7,9.61,0,14.38,30.1,4.94,30.1,28.93,0,10.24-5.57,18.69-19.86,18.69-5.57,0-11.5-1.26-16.62-4.4Z"/>
        <path class="cls-1" d="M1387.83,335.84v-52.57h-14.02c-2.07,0-3.5-1.53-3.5-3.5s1.44-3.51,3.5-3.51h35.59c2.24,0,3.5,1.53,3.5,3.51s-1.44,3.5-3.5,3.5h-13.93v52.84c0,2.07-1.71,3.77-3.86,3.77s-3.77-1.71-3.77-4.04Z"/>
        <path class="cls-1" d="M1430.53,335.39v-55.26c0-2.16,1.71-3.86,4.04-3.86h25.25c1.98,0,3.51,1.53,3.51,3.51s-1.53,3.5-3.51,3.5h-21.66v20.31h19.68c1.98,0,3.5,1.53,3.5,3.51s-1.53,3.5-3.5,3.5h-19.68v21.57h21.66c1.98,0,3.51,1.53,3.51,3.5s-1.53,3.5-3.51,3.5h-25.52c-2.07,0-3.77-1.71-3.77-3.77Z"/>
        <path class="cls-1" d="M1482.22,336.38v-57.6c0-1.8,1.44-3.23,3.24-3.23,1.35,0,2.33.81,2.97,1.98l19.59,38.46,19.5-38.46c.54-1.08,1.62-1.98,3.06-1.98,1.71,0,3.23,1.26,3.23,3.14v57.69c0,1.98-1.53,3.5-3.5,3.5s-3.5-1.53-3.5-3.5v-41.51h-.45l-15.46,30.73c-.54,1.08-1.62,1.71-2.88,1.71s-2.33-.63-2.88-1.71l-15.45-30.73h-.45v41.51c0,1.98-1.53,3.5-3.5,3.5s-3.5-1.53-3.5-3.5Z"/>
        <path class="cls-1" d="M1551.61,336.11c0-.63.18-1.26.36-1.8l18.06-55.08c.54-1.8,1.71-2.97,3.68-2.97h1.62c1.98,0,3.14,1.17,3.68,2.97l18.06,55.27c.18.45.36,1.17.36,1.62,0,2.07-1.62,3.77-3.86,3.77-1.8,0-3.14-1.26-3.68-2.88l-4.22-13.48h-22.28l-4.22,13.48c-.45,1.62-1.98,2.88-3.77,2.88-2.16,0-3.77-1.71-3.77-3.77ZM1583.78,316.43l-9.08-29.03h-.36l-9.07,29.03h18.51Z"/>
        <path class="cls-1" d="M1612.91,335.48c-1.17-.72-1.89-1.89-1.89-3.23,0-1.98,1.62-3.59,3.59-3.59.72,0,1.17.18,1.98.63,3.59,1.98,7.82,3.32,12.94,3.32,9.35,0,12.4-4.76,12.4-10.78,0-19.23-30.1-7.1-30.1-29.47,0-10.78,6.38-16.8,18.15-16.8,6.29,0,11.77,2.07,14.83,4.22,1.08.81,1.89,1.8,1.89,3.05,0,1.8-1.53,3.33-3.5,3.33-.72,0-1.44-.27-2.25-.72-3.95-1.98-7.73-2.79-10.96-2.79-8.81,0-10.7,4.58-10.7,9.61,0,14.38,30.1,4.94,30.1,28.93,0,10.24-5.57,18.69-19.86,18.69-5.57,0-11.5-1.26-16.62-4.4Z"/>
      </g>
      <g>
        <path class="cls-1" d="M429.64,265.5c-5.02-22.65,14.71-42.38,37.36-37.36,11.41,2.53,20.62,11.74,23.15,23.15,5.02,22.65-14.71,42.38-37.36,37.36-11.41-2.53-20.62-11.74-23.15-23.15Z"/>
        <path class="cls-1" d="M541.35,250.21c-.09-.89-.25-1.76-.36-2.65-.23-1.73-.46-3.46-.79-5.16-.2-1.05-.47-2.07-.71-3.1-.35-1.49-.71-2.97-1.14-4.43-.32-1.11-.7-2.19-1.07-3.28-.45-1.32-.92-2.64-1.44-3.93-.45-1.14-.93-2.26-1.43-3.37-.53-1.17-1.09-2.33-1.68-3.47-.59-1.15-1.18-2.3-1.82-3.42-.58-1.01-1.19-2-1.81-2.98-.74-1.19-1.48-2.37-2.28-3.51-.55-.79-1.15-1.55-1.73-2.32-.95-1.27-1.89-2.53-2.91-3.74-.26-.31-.54-.59-.81-.89-5.89-6.78-12.84-12.57-20.61-17.15-.15-.09-.3-.18-.45-.28-1.87-1.08-3.79-2.08-5.76-3.02-.24-.11-.48-.24-.72-.35-1.95-.91-3.94-1.73-5.97-2.5-.25-.09-.5-.18-.75-.28-2.07-.75-4.17-1.42-6.31-2.01-.18-.05-.36-.1-.55-.14-6.73-1.8-13.75-2.85-21.02-2.85-.05,0-.1,0-.16,0h0c-4.92,0-9.53.39-13.93,1.08h-.02c-.72.11-1.43.24-2.13.37h-.01c-3.98.72-7.78,1.71-11.37,2.95-.04.01-.07.02-.11.04-.2.07-.43.13-.64.2h0c-4.06,1.46-7.87,3.26-11.46,5.29-.05.02-.08.05-.12.06-.01,0-.03.02-.04.04-1.72.98-3.38,2.03-5.01,3.14,0,.01,0,.01-.02.03-.07.04-.12.06-.19.1-2.6,1.79-5.06,3.72-7.44,5.8-6.68,5.47-12.51,11.96-17.19,19.27-7.53,10.47-14.06,22.31-20.43,34.45-.05.08-.09.16-.13.24-2.16,4.1-4.29,8.22-6.45,12.34-.21.4-.43.8-.64,1.22-.7,1.33-1.4,2.68-2.1,4.02-1.55,2.92-3.13,5.84-4.73,8.75-.25.45-.49.92-.75,1.38-1.79,3.23-3.63,6.42-5.52,9.54,0,0,0,.01,0,.01-.1.2-.22.37-.33.56-2.01,3.31-4.08,6.58-6.23,9.72-.15.19-.3.38-.45.58-3.83,4.39-8.25,8.16-13.12,11.18-9.08,5.28-20.54,8.8-31.1,8.8-26.21,0-48.33-17.2-55.72-40.94-1.96-6.3-2.88-13.07-2.56-20.08,1.43-31.7,28.94-56.01,60.67-56.01l42.42-.11c4.55,0,8.27-3.72,8.27-8.27v-5.9c0-4.7-3.85-8.55-8.55-8.55h-44.47c-11.27,0-22,2.29-31.76,6.43-29.25,12.37-49.79,41.34-49.79,75.08v.02h0c0,45.03,36.53,81.56,81.55,81.56,12.4,0,24.43-2.8,35.35-7.95,10.36-4.69,19.36-11.29,25.66-19.06.52-.58,1.1-1.09,1.61-1.68l-.09-.07s0,0,0,0c1.84-2.49,3.61-5.1,5.32-7.74,0-.02.02-.03.02-.05.84-1.32,1.63-2.7,2.44-4.05.02-.03.02-.04.04-.05.06-.1.12-.21.18-.29,1.85-3.09,3.65-6.23,5.39-9.46.03-.08.08-.13.12-.22.42-.78.85-1.55,1.27-2.33,0-.02.02-.04.03-.05,1.21-2.27,2.38-4.57,3.55-6.88.12-.23.26-.49.39-.74.05-.09.1-.19.14-.3,2.78-5.49,5.5-11.05,8.23-16.55.97-1.94,1.95-3.89,2.94-5.81.17-.33.34-.65.5-.99,6.41-12.44,13.18-24.24,21.48-33.85.02-.01.03-.02.04-.04,0,0,0-.02.02-.03,1.76-2.02,3.59-3.95,5.51-5.75,0,0,.02-.01.03-.02,1.92-1.82,3.91-3.53,6-5.1.8-.62,1.6-1.21,2.43-1.78,1.09-.76,2.21-1.47,3.35-2.16,1.6-.96,3.26-1.82,4.97-2.62,1.04-.49,2.11-.92,3.19-1.34,1.76-.7,3.57-1.33,5.45-1.88.91-.26,1.83-.5,2.77-.72,2.56-.6,5.2-1.1,7.99-1.39.02,0,.05-.02.07-.02,1.73-.14,3.47-.26,5.23-.26h0c.06.01.11,0,.16,0,4.91,0,9.67.67,14.24,1.81,7.96,1.99,15.29,5.61,21.64,10.46.13.09.25.18.37.28,1.1.85,2.15,1.75,3.19,2.68.27.24.54.48.8.74.95.87,1.86,1.78,2.75,2.71.31.34.62.68.92,1.03.83.91,1.65,1.85,2.42,2.82.3.37.57.77.86,1.14,1.33,1.75,2.56,3.59,3.69,5.48.34.56.71,1.11,1.02,1.7.42.74.77,1.52,1.16,2.29.43.86.86,1.71,1.25,2.6.33.74.62,1.5.91,2.25.37.96.73,1.92,1.06,2.89.24.74.47,1.49.69,2.24.3,1.05.57,2.12.82,3.19.17.72.34,1.43.47,2.16.23,1.21.4,2.44.56,3.67.08.63.18,1.24.24,1.86.18,1.88.29,3.77.29,5.68,0,32.62-26.75,59.37-59.37,59.37-27.7,0-50.96-18.94-57.67-44.35-.47-1.77-2.85-2.04-3.67-.4-3.07,6.06-8.14,16.08-10.59,20.92-.89,1.75-.87,3.84.11,5.54,14.31,24.78,41.13,41.45,71.82,41.45,45.34,0,82.53-36.86,82.53-82.53,0-2.71-.15-5.39-.41-8.03Z"/>
        <path class="cls-1" d="M791.21,178.04h-44.59c-29.06.75-51.56,28.57-43.8,58.7,5.4,20.96,25.31,34.91,46.96,34.91h33.13c7.13,0,14.21,2.81,18.63,8.4,3.22,4.08,5.1,9.21,5.1,14.76,0,10.76-7.49,20.54-18.24,23.15h-.05s-88.83.21-88.83.21c-1.34,0-2.43,1.09-2.43,2.44v4.74c0,8.5,6.92,15.42,15.42,15.42l70.33-.03c26.52,0,48.19-21.34,46.91-48.18-1.2-25.18-23.23-44.39-48.44-44.39h-32.12c-12.04,0-23.01-8.5-24.54-20.44-1.76-13.68,8.59-25.82,21.99-26.52h89.7c-10.24-13.89-26.61-22.98-45.1-23.16Z"/>
        <path class="cls-1" d="M942.85,186.81l-31.09,58.97c-2.35,4.46-8.74,4.46-11.09,0l-31.19-59.16c-2.78-5.28-8.25-8.58-14.22-8.58h-22.74c-.92,0-1.29,1.15-.55,1.71,8.03,6.05,14.7,13.8,19.47,22.72l41.19,71.29c1.05,1.82,1.6,3.89,1.6,5.99l-.03,52.31c0,4.79,3.92,8.72,8.71,8.72h6.51c4.79,0,8.71-3.92,8.72-8.71l.05-52.33c0-2.1.56-4.16,1.61-5.98l41.18-71.28c4.79-8.95,11.5-16.73,19.57-22.79.7-.53.35-1.63-.53-1.63h-22.65c-6.1,0-11.69,3.38-14.53,8.77Z"/>
        <path class="cls-1" d="M1053.79,247.8h-35.23c-13.05,0-23.49-10.43-23.49-23.48s9.79-22.84,22.18-23.48h73.22c4.63,0,8.42-3.82,8.42-8.45v-6.01c0-4.74-3.85-8.62-8.57-8.69h-73.07c-25.12.64-45.34,21.52-45.34,46.63s21.21,46.97,46.65,46.97h40.45c10.76,2.62,18.26,12.07,18.26,23.16s-7.5,20.55-18.26,23.16l-73.39.03c-4.54.1-8.23,3.87-8.23,8.43v6.01c0,4.62,3.67,8.4,8.23,8.65l67.85.04c25.77,0,46.96-20.55,46.96-46.32s-20.87-46.64-46.64-46.64Z"/>
        <path class="cls-1" d="M687.52,337.01c-1.67-3.55-2.61-7.5-2.61-11.66l.06-85.01c-1.92-33.91-29.59-60.86-63.9-61.88-34.31,1.02-61.98,27.97-63.9,61.88l.23,59.06c0,10.2-8.3,18.5-18.5,18.5h-5.23c-5.77,7.35-12.59,13.8-20.25,19.16-1.64,1.15-.83,3.7,1.17,3.7h17.44c8.54,0,16.57-2.28,23.54-6.22,14.51-8.2,24.41-23.69,24.61-41.42,0-.07.15-43.54.15-51.81,1.27-21.79,19.05-38.64,40.61-39.7h.27c21.56,1.05,39.34,17.9,40.61,39.7,0,17.96.24,74.4.24,75.47,0,16.57,14.68,22.15,22.99,23.58,1.9.33,3.3-1.62,2.48-3.36Z"/>
        <path class="cls-1" d="M278.62,114.14h0c-.02-1.52-.13-3.07-.37-4.63-2.26-14.79-15.05-25.57-29.82-26.66-5.03-.37-10.08-.98-14.81-2.76-7.47-2.82-14.48-7.21-20.5-13.2-.19-.19-.39-.34-.58-.53-.19-.19-.34-.4-.52-.59-9.14-9.59-14.37-21.49-15.77-33.74-.12-1.08-.22-2.15-.29-3.23-.17-2.66-.42-5.32-1.25-7.85-1.78-5.41-5.07-10.43-9.9-14.4-10.36-8.52-28.52-8.74-39.07-.45-14.92,11.73-16.03,33.41-3.13,46.6,5.22,5.34,11.89,8.4,18.77,9.2.84.05,1.67.08,2.5.17,12.72,1.42,25.04,7.01,34.8,16.7.2.2.42.36.61.56.2.2.36.42.55.63.1.1.19.2.29.31,8.87,9.45,13.24,21.68,13.18,33.89.07,12.2-4.31,24.43-13.18,33.89-.1.1-.19.2-.29.31-.19.2-.35.43-.55.62-.2.2-.41.37-.61.56-9.76,9.7-22.07,15.28-34.8,16.7-.83.09-1.67.11-2.5.17-6.88.8-13.55,3.86-18.77,9.2-12.89,13.18-11.79,34.84,3.1,46.58,10.54,8.31,28.72,8.1,39.09-.42,4.84-3.97,8.13-9,9.91-14.41.83-2.53,1.08-5.2,1.25-7.85.07-1.08.17-2.16.29-3.23,1.4-12.25,6.63-24.15,15.77-33.74.18-.19.34-.4.52-.59.19-.19.39-.35.58-.53,6.02-5.99,13.02-10.38,20.5-13.2,4.72-1.78,9.77-2.39,14.81-2.76,14.77-1.09,27.56-11.87,29.82-26.66.24-1.57.35-3.11.37-4.63h0Z"/>
        <path class="cls-1" d="M0,196.68h0c.02,1.52.13,3.07.37,4.63,2.27,14.79,15.05,25.57,29.82,26.66,5.03.37,10.08.98,14.81,2.76,7.47,2.82,14.48,7.21,20.5,13.2.19.19.39.34.58.53.19.19.34.4.52.59,9.14,9.59,14.37,21.49,15.77,33.74.12,1.08.22,2.15.29,3.23.17,2.66.42,5.32,1.25,7.85,1.78,5.41,5.07,10.43,9.9,14.4,10.36,8.52,28.52,8.74,39.07.45,14.92-11.73,16.03-33.41,3.13-46.6-5.22-5.34-11.89-8.4-18.77-9.2-.84-.05-1.67-.08-2.5-.17-12.72-1.42-25.04-7.01-34.8-16.7-.2-.2-.42-.36-.61-.56-.2-.2-.36-.42-.55-.63-.1-.1-.19-.2-.29-.31-8.87-9.45-13.24-21.68-13.18-33.89-.07-12.2,4.31-24.43,13.18-33.89.1-.1.19-.2.29-.31.19-.2.35-.43.55-.62.2-.2.41-.37.61-.56,9.76-9.7,22.08-15.28,34.8-16.7.83-.09,1.67-.11,2.5-.17,6.88-.8,13.55-3.86,18.77-9.2,12.89-13.18,11.79-34.84-3.1-46.58-10.54-8.31-28.72-8.1-39.09.42-4.84,3.97-8.13,9-9.91,14.41-.83,2.53-1.08,5.2-1.25,7.85-.07,1.08-.17,2.16-.29,3.23-1.4,12.25-6.63,24.15-15.77,33.74-.18.19-.33.4-.52.59-.18.19-.39.35-.58.53-6.02,5.99-13.02,10.38-20.5,13.2-4.72,1.78-9.77,2.39-14.81,2.76-14.77,1.09-27.56,11.87-29.82,26.66-.24,1.57-.35,3.11-.37,4.63h0Z"/>
      </g>
    </g>
  </g>
</svg>