<?xml version="1.0" standalone="no"?>
<!DOCTYPE svg PUBLIC "-//W3C//DTD SVG 20010904//EN"
 "http://www.w3.org/TR/2001/REC-SVG-20010904/DTD/svg10.dtd">
<svg version="1.0" xmlns="http://www.w3.org/2000/svg"
 width="1000.000000pt" height="1000.000000pt" viewBox="0 0 1000.000000 1000.000000"
 preserveAspectRatio="xMidYMid meet">
<metadata>
Created by potrace 1.14, written by Peter Selinger 2001-2017
</metadata>
<g transform="translate(0.000000,1000.000000) scale(0.100000,-0.100000)"
fill="#000000" stroke="none">
<path d="M5675 9968 c-165 -22 -376 -109 -487 -200 -190 -156 -311 -364 -354
-608 -14 -80 -20 -230 -11 -275 3 -11 8 -42 12 -70 10 -70 52 -199 88 -270 93
-186 262 -356 444 -449 119 -60 254 -96 373 -101 98 -4 234 -28 357 -64 340
-99 642 -289 876 -550 146 -164 296 -446 343 -646 37 -157 48 -254 48 -410 0
-171 -6 -221 -44 -380 -114 -475 -435 -862 -916 -1103 -178 -89 -431 -164
-600 -177 -154 -12 -182 -16 -244 -34 -382 -111 -652 -406 -724 -791 -21 -114
-14 -326 15 -435 30 -109 114 -282 173 -354 157 -190 335 -299 571 -351 145
-32 347 -30 475 6 30 8 64 17 75 19 24 5 36 11 140 60 148 69 242 145 334 269
45 59 112 175 111 191 0 3 6 18 14 33 25 50 56 198 61 293 5 102 10 142 30
259 43 249 164 532 321 750 85 118 168 210 189 210 8 0 20 8 27 18 25 35 184
165 278 228 250 166 506 257 790 279 113 9 157 14 208 26 26 6 54 12 62 14 8
2 46 15 85 29 315 120 560 397 635 721 44 191 41 320 -11 490 -17 55 -45 127
-61 160 -167 330 -487 543 -859 570 -157 12 -255 27 -399 64 -59 14 -163 57
-257 104 -445 223 -784 620 -940 1102 -9 28 -17 55 -19 60 -1 6 -9 37 -17 70
-8 33 -18 76 -21 95 -3 19 -8 46 -11 60 -3 14 -7 59 -10 100 -11 169 -33 298
-62 370 -73 178 -197 342 -328 436 -113 80 -275 148 -415 174 -80 15 -264 19
-345 8z"/>
<path d="M4020 7320 c-222 -36 -428 -135 -558 -268 -125 -129 -232 -323 -256
-467 -3 -16 -8 -41 -11 -55 -3 -14 -7 -61 -9 -105 -13 -249 -79 -501 -191
-730 -30 -60 -60 -119 -67 -130 -7 -11 -31 -47 -52 -80 -231 -356 -615 -643
-1001 -748 -139 -38 -181 -44 -410 -63 -44 -3 -83 -8 -86 -10 -3 -2 -21 -6
-40 -9 -113 -20 -284 -99 -394 -183 -75 -57 -186 -171 -230 -238 -71 -106
-145 -282 -161 -379 -3 -21 -8 -47 -10 -59 -6 -27 -6 -204 0 -232 2 -12 7 -39
10 -60 11 -67 56 -195 97 -274 124 -237 338 -420 591 -504 86 -28 172 -44 286
-52 278 -18 486 -83 748 -233 295 -168 579 -483 734 -813 42 -90 115 -298 125
-358 3 -19 10 -51 15 -70 10 -40 22 -129 25 -180 4 -67 17 -195 20 -201 2 -3
7 -27 10 -53 8 -59 62 -194 106 -267 71 -118 174 -230 269 -296 345 -236 835
-238 1182 -6 157 106 288 276 357 465 31 83 49 158 57 228 51 480 -225 916
-680 1070 -89 31 -141 40 -246 45 -162 7 -377 61 -570 143 -146 62 -354 190
-465 287 -164 143 -306 326 -405 523 -45 90 -111 266 -125 337 -33 164 -38
204 -39 355 -1 149 5 240 19 303 3 12 7 36 10 52 4 17 7 35 9 40 1 6 8 30 15
55 79 287 270 594 495 793 154 136 344 252 540 331 84 34 234 80 295 91 19 3
37 7 40 9 9 6 119 18 176 21 131 5 252 38 383 104 285 144 489 425 536 742 12
82 13 277 1 308 -3 8 -8 30 -11 50 -25 164 -160 403 -297 527 -126 114 -323
209 -497 239 -62 11 -283 14 -340 5z"/>
</g>
</svg>
