<?xml version="1.0" encoding="utf-8"?>
<!-- Generator: Adobe Illustrator 28.1.0, SVG Export Plug-In . SVG Version: 6.00 Build 0)  -->
<svg version="1.1" id="Camada_1" xmlns="http://www.w3.org/2000/svg" xmlns:xlink="http://www.w3.org/1999/xlink" x="0px" y="0px"
	 viewBox="0 0 800 800" style="enable-background:new 0 0 800 800;" xml:space="preserve">
<style type="text/css">
	.st0{fill:url(#SVGID_1_);}
	.st1{fill:url(#SVGID_00000021091149304334532020000014909172683202296255_);}
	.st2{fill:url(#SVGID_00000129189212273528339030000008659921128620923017_);}
	.st3{fill:url(#SVGID_00000134959691761686185410000017003864603043358140_);}
	.st4{fill:url(#SVGID_00000084496431473750071350000008284402592309631904_);}
</style>
<linearGradient id="SVGID_1_" gradientUnits="userSpaceOnUse" x1="41.6665" y1="399.9998" x2="525" y2="399.9998">
	<stop  offset="0" style="stop-color:#68CAD4"/>
	<stop  offset="0.5056" style="stop-color:#47619C"/>
	<stop  offset="1" style="stop-color:#825EE4"/>
</linearGradient>
<path class="st0" d="M300,758.3h-33.3c-48.9,0-84.2,0-113.1-3.9c-34-4.6-57.3-14.7-75.3-32.7c-18.1-18.1-28.2-41.3-32.7-75.3
	c-3.9-28.9-3.9-64.2-3.9-113.1v-66.7c0-13.8,11.2-25,25-25c13.8,0,25,11.2,25,25v66.7c0,87.3,0,131.1,22,153c22,22,65.8,22,153,22
	H300c87.3,0,131.1,0,153-22s22-65.8,22-153V266.7c0-87.3,0-131.1-22-153c-22-22-65.8-22-153-22h-33.3c-87.3,0-131.1,0-153,22
	c-22,22-22,65.8-22,153v66.7c0,13.8-11.2,25-25,25c-13.8,0-25-11.2-25-25v-66.7c0-48.9,0-84.2,3.9-113.1c4.6-34,14.7-57.3,32.7-75.3
	c18.1-18.1,41.3-28.2,75.3-32.7c28.9-3.9,64.2-3.9,113.1-3.9H300c48.9,0,84.2,0,113.1,3.9c34,4.6,57.3,14.7,75.3,32.7
	c18.1,18.1,28.2,41.3,32.7,75.3c3.9,28.9,3.9,64.2,3.9,113.1v266.7c0,48.9,0,84.2-3.9,113.1c-4.6,34-14.7,57.3-32.7,75.3
	s-41.3,28.2-75.3,32.7C384.2,758.3,348.9,758.3,300,758.3z"/>
<linearGradient id="SVGID_00000124870147278765910600000017478709598974595222_" gradientUnits="userSpaceOnUse" x1="558.3333" y1="533.3433" x2="758.333" y2="533.3433">
	<stop  offset="0" style="stop-color:#7F5EE0"/>
	<stop  offset="1" style="stop-color:#5937D3"/>
</linearGradient>
<path style="fill:url(#SVGID_00000124870147278765910600000017478709598974595222_);" d="M583.3,758.1c-13.6,0-24.8-11-25-24.6
	c-0.2-13.8,10.8-25.2,24.6-25.4c62.7-0.9,87.8-6.2,103.4-21.8c22-22,22-65.8,22-153c0-87.3,0-131.1-22-153
	c-15.6-15.6-40.7-20.8-103.4-21.8c-13.8-0.2-24.8-11.6-24.6-25.4c0.2-13.8,11.5-24.9,25.4-24.6c58.4,0.8,105.7,4.1,138,36.4
	c18.1,18.1,28.2,41.3,32.7,75.3c3.9,28.9,3.9,64.2,3.9,113.1s0,84.2-3.9,113.1c-4.6,34-14.7,57.3-32.7,75.3
	c-32.3,32.3-79.6,35.5-138,36.4C583.6,758.1,583.4,758.1,583.3,758.1z"/>
<linearGradient id="SVGID_00000041998443359574585850000012023840730472473733_" gradientUnits="userSpaceOnUse" x1="174.9995" y1="166.6665" x2="391.6665" y2="166.6665">
	<stop  offset="0" style="stop-color:#68CAD4"/>
	<stop  offset="0.7374" style="stop-color:#47619C"/>
</linearGradient>
<path style="fill:url(#SVGID_00000041998443359574585850000012023840730472473733_);" d="M366.7,191.7H200c-13.8,0-25-11.2-25-25
	s11.2-25,25-25h166.7c13.8,0,25,11.2,25,25S380.5,191.7,366.7,191.7z"/>
<linearGradient id="SVGID_00000152971428834877471630000002549945825568113067_" gradientUnits="userSpaceOnUse" x1="608.333" y1="533.3335" x2="658.333" y2="533.3335">
	<stop  offset="0" style="stop-color:#7F5EE0"/>
	<stop  offset="1" style="stop-color:#825EE4"/>
</linearGradient>
<path style="fill:url(#SVGID_00000152971428834877471630000002549945825568113067_);" d="M633.3,625c-13.8,0-25-11.2-25-25V466.7
	c0-13.8,11.2-25,25-25s25,11.2,25,25V600C658.3,613.8,647.1,625,633.3,625z"/>
<linearGradient id="SVGID_00000079484060120133561970000010277735330512407939_" gradientUnits="userSpaceOnUse" x1="208.3335" y1="583.333" x2="358.3335" y2="583.333">
	<stop  offset="0" style="stop-color:#68CAD4"/>
	<stop  offset="0.7374" style="stop-color:#47619C"/>
</linearGradient>
<path style="fill:url(#SVGID_00000079484060120133561970000010277735330512407939_);" d="M283.3,658.3c-41.4,0-75-33.6-75-75
	s33.6-75,75-75s75,33.6,75,75S324.7,658.3,283.3,658.3z M283.3,558.3c-13.8,0-25,11.2-25,25s11.2,25,25,25s25-11.2,25-25
	S297.1,558.3,283.3,558.3z"/>
</svg>
