<?xml version="1.0" encoding="utf-8"?>
<!-- Generator: Adobe Illustrator 28.1.0, SVG Export Plug-In . SVG Version: 6.00 Build 0)  -->
<svg version="1.1" id="Camada_1" xmlns="http://www.w3.org/2000/svg" xmlns:xlink="http://www.w3.org/1999/xlink" x="0px" y="0px"
	 viewBox="0 0 800 800" style="enable-background:new 0 0 800 800;" xml:space="preserve">
<style type="text/css">
	.st0{fill:url(#SVGID_1_);}
	.st1{fill:url(#SVGID_00000008865511876923468060000009737879966881882755_);}
	.st2{fill:url(#SVGID_00000122717558311576180560000008574808013124581293_);}
</style>
<linearGradient id="SVGID_1_" gradientUnits="userSpaceOnUse" x1="141.6665" y1="333.3328" x2="658.333" y2="333.3328">
	<stop  offset="0" style="stop-color:#68CAD4"/>
	<stop  offset="0.5056" style="stop-color:#47619C"/>
	<stop  offset="1" style="stop-color:#825EE4"/>
</linearGradient>
<path class="st0" d="M400,625c-17.9,0-35.8-3.6-52.5-10.7c-39.1-16.7-74.9-42.8-106.2-77.6c-9.3-10.2-8.4-26.1,1.8-35.3
	c10.2-9.3,26.1-8.4,35.3,1.8c26.5,29.3,56.3,51.2,88.8,65.1c20.9,8.9,44.8,8.9,65.7,0c109.8-46.9,175.5-181.5,175.5-284.5
	c0-106-93.5-192.2-208.3-192.2c-114.9,0-208.3,86.2-208.3,192.2c0,40.6,9.4,84,27.1,125.4c5.4,12.7-0.4,27.4-13.1,32.8
	c-12.7,5.4-27.4-0.4-32.8-13.1c-20.4-47.6-31.2-97.8-31.2-145.1c0-65,27.1-126.1,76.3-171.9c48.7-45.3,113.4-70.3,182-70.3
	c68.7,0,133.3,25,182,70.3c49.2,45.8,76.3,106.8,76.3,171.9c0,64.1-19.6,132.5-55.3,192.5c-18.2,30.7-39.9,57.9-64.5,81
	c-26.3,24.7-55.3,43.8-86.1,57C435.8,621.4,417.9,625,400,625z"/>
<linearGradient id="SVGID_00000025420033605670128910000008295016560842212001_" gradientUnits="userSpaceOnUse" x1="308.3335" y1="300" x2="491.667" y2="300">
	<stop  offset="0" style="stop-color:#68CAD4"/>
	<stop  offset="0.5056" style="stop-color:#47619C"/>
	<stop  offset="1" style="stop-color:#825EE4"/>
</linearGradient>
<path style="fill:url(#SVGID_00000025420033605670128910000008295016560842212001_);" d="M400,391.7c-50.5,0-91.7-41.1-91.7-91.7
	s41.1-91.7,91.7-91.7s91.7,41.1,91.7,91.7S450.5,391.7,400,391.7z M400,258.3c-23,0-41.7,18.7-41.7,41.7s18.7,41.7,41.7,41.7
	c23,0,41.7-18.7,41.7-41.7S423,258.3,400,258.3z"/>
<linearGradient id="SVGID_00000062162811013928731190000007850649188292642719_" gradientUnits="userSpaceOnUse" x1="41.6665" y1="624.9994" x2="758.333" y2="624.9994">
	<stop  offset="0" style="stop-color:#68CAD4"/>
	<stop  offset="0.5056" style="stop-color:#47619C"/>
	<stop  offset="1" style="stop-color:#825EE4"/>
</linearGradient>
<path style="fill:url(#SVGID_00000062162811013928731190000007850649188292642719_);" d="M400,758.3c-92.5,0-179.8-16.4-246-46.1
	C81.6,679.6,41.7,633.8,41.7,583.3c0-30.3,14.8-59.8,42.9-85.2c10.2-9.3,26-8.5,35.3,1.8c9.3,10.2,8.5,26-1.8,35.3
	c-17.5,15.9-26.4,32.1-26.4,48.1c0,59.1,126.6,125,308.3,125c51.2,0,102.1-5.5,147.2-16c13.5-3.1,26.9,5.2,30,18.7
	c3.1,13.4-5.2,26.9-18.7,30C509.1,752.5,455.8,758.3,400,758.3z M677.2,691.7c-8,0-15.9-3.9-20.8-11.1c-7.7-11.5-4.7-27,6.8-34.7
	c20.6-13.8,45.1-35.9,45.1-62.6c0-16.1-8.9-32.3-26.4-48.1c-10.2-9.3-11-25.1-1.8-35.3c9.3-10.2,25.1-11,35.3-1.8
	c28,25.4,42.9,54.9,42.9,85.2c0,26.9-11.7,66.8-67.2,104.1C686.9,690.3,682,691.7,677.2,691.7z"/>
</svg>
