<?xml version="1.0" encoding="utf-8"?>
<!-- Generator: Adobe Illustrator 28.1.0, SVG Export Plug-In . SVG Version: 6.00 Build 0)  -->
<svg version="1.1" id="Camada_1" xmlns="http://www.w3.org/2000/svg" xmlns:xlink="http://www.w3.org/1999/xlink" x="0px" y="0px"
	 viewBox="0 0 800 800" style="enable-background:new 0 0 800 800;" xml:space="preserve">
<style type="text/css">
	.st0{fill:url(#SVGID_1_);}
	.st1{fill:url(#SVGID_00000134234656051753109170000009514109949962017427_);}
	.st2{fill:url(#SVGID_00000136395485815509902140000007533389316746384776_);}
</style>
<linearGradient id="SVGID_1_" gradientUnits="userSpaceOnUse" x1="41.6665" y1="477.6663" x2="758.333" y2="477.6663">
	<stop  offset="0" style="stop-color:#68CAD4"/>
	<stop  offset="0.5056" style="stop-color:#47619C"/>
	<stop  offset="1" style="stop-color:#825EE4"/>
</linearGradient>
<path class="st0" d="M466.7,769.3H333.3c-64.8,0-111.7,0-149.6-5.1c-43.5-5.8-73-18.6-95.7-41.3c-9.8-9.8-9.8-25.6,0-35.4
	c9.8-9.8,25.6-9.8,35.4,0c31.7,31.7,91.3,31.7,209.9,31.7h133.3c118.7,0,178.2,0,209.9-31.7c31.7-31.7,31.7-91.3,31.7-209.9
	c0-38.3,0-71.4-1.1-99c-0.6-13.8,10.1-25.4,23.9-26c13.8-0.6,25.4,10.1,26,23.9c1.2,28.6,1.2,62.2,1.2,101c0,64.8,0,111.7-5.1,149.6
	c-5.8,43.5-18.6,73-41.3,95.7c-22.7,22.7-52.2,35.4-95.7,41.3C578.3,769.3,531.5,769.3,466.7,769.3z M67.8,602.7
	c-13.3,0-24.4-10.5-25-24c-1.2-28.6-1.2-62.2-1.2-101c0-64.8,0-111.7,5.1-149.6c5.8-43.5,18.6-73,41.3-95.7
	c22.7-22.7,52.2-35.4,95.7-41.3c38-5.1,84.8-5.1,149.6-5.1h133.3c64.8,0,111.7,0,149.6,5.1c43.5,5.8,73,18.6,95.7,41.3
	c9.8,9.8,9.8,25.6,0,35.4c-9.8,9.8-25.6,9.8-35.4,0C644.9,236,585.3,236,466.7,236H333.3c-118.7,0-178.2,0-209.9,31.7
	C91.7,299.5,91.7,359,91.7,477.7c0,38.3,0,71.4,1.1,99c0.6,13.8-10.1,25.4-23.9,26C68.5,602.7,68.2,602.7,67.8,602.7z"/>
<linearGradient id="SVGID_00000108271516595848619360000009937645080985533613_" gradientUnits="userSpaceOnUse" x1="241.6665" y1="92.3335" x2="558.333" y2="92.3335">
	<stop  offset="0" style="stop-color:#68CAD4"/>
	<stop  offset="0.5056" style="stop-color:#47619C"/>
	<stop  offset="1" style="stop-color:#825EE4"/>
</linearGradient>
<path style="fill:url(#SVGID_00000108271516595848619360000009937645080985533613_);" d="M533.3,173c-13.8,0-25-11.2-25-25
	c0-58.2-0.5-62.4-12.2-74.1c-11.7-11.7-37.9-12.2-96.1-12.2c-13.8,0-25-11.2-25-25c0-13.8,11.2-25,25-25c67.5,0,104.6,0,131.5,26.8
	c26.8,26.8,26.8,42,26.8,109.5C558.3,161.8,547.1,173,533.3,173z M266.7,173c-13.8,0-25-11.2-25-25c0-67.5,0-82.6,26.8-109.5
	c9.8-9.8,25.6-9.8,35.4,0c9.8,9.8,9.8,25.6,0,35.4c-11.7,11.7-12.2,15.9-12.2,74.1C291.7,161.8,280.5,173,266.7,173z"/>
<linearGradient id="SVGID_00000183230297469044129920000001677387739838645126_" gradientUnits="userSpaceOnUse" x1="308.3335" y1="477.6667" x2="491.667" y2="477.6667">
	<stop  offset="0" style="stop-color:#68CAD4"/>
	<stop  offset="0.5056" style="stop-color:#47619C"/>
	<stop  offset="1" style="stop-color:#825EE4"/>
</linearGradient>
<path style="fill:url(#SVGID_00000183230297469044129920000001677387739838645126_);" d="M400,636c-13.8,0-25-11.2-25-25v-0.2
	c-14.2-3.5-27.2-10-38.1-19.1c-18.1-15.1-28.5-36.4-28.5-58.5c0-13.8,11.2-25,25-25c13.8,0,25,11.2,25,25
	c0,16.6,19.1,30.6,41.7,30.6c22.6,0,41.7-14,41.7-30.6c0-16.6-19.1-30.6-41.7-30.6c-23.6,0-46.1-7.8-63.1-22.1
	c-18.1-15.1-28.5-36.4-28.5-58.5c0-22.1,10.4-43.4,28.5-58.5c10.9-9.1,24-15.6,38.1-19.1v-0.2c0-13.8,11.2-25,25-25
	c13.8,0,25,11.2,25,25v0.2c14.2,3.5,27.2,10,38.1,19.1c18.1,15.1,28.5,36.4,28.5,58.5c0,13.8-11.2,25-25,25c-13.8,0-25-11.2-25-25
	c0-16.6-19.1-30.6-41.7-30.6c-22.6,0-41.7,14-41.7,30.6c0,16.6,19.1,30.6,41.7,30.6c23.6,0,46.1,7.8,63.1,22.1
	c18.1,15.1,28.5,36.4,28.5,58.5c0,22.1-10.4,43.4-28.5,58.5c-10.9,9.1-24,15.6-38.1,19.1v0.2C425,624.8,413.8,636,400,636z"/>
</svg>
