<?xml version="1.0" encoding="utf-8"?>
<!-- Generator: Adobe Illustrator 28.1.0, SVG Export Plug-In . SVG Version: 6.00 Build 0)  -->
<svg version="1.1" id="Camada_1" xmlns="http://www.w3.org/2000/svg" xmlns:xlink="http://www.w3.org/1999/xlink" x="0px" y="0px"
	 viewBox="0 0 800 800" style="enable-background:new 0 0 800 800;" xml:space="preserve">
<style type="text/css">
	.st0{fill:#FFFFFF;}
	.st1{fill-rule:evenodd;clip-rule:evenodd;fill:#FFFFFF;}
</style>
<path class="st0" d="M200.5,266.9c3.8-30.1,43-71.1,74-66.5l0,0c30.2,5.7,54.2,57.8,67.7,81.2c9.6,17,3.4,34.2-5.6,41.4
	c-12,9.7-30.9,23.1-26.9,36.5c7,23.9,90.4,107.2,131.3,130.9c15.5,9,26.8-14.7,36.4-26.8c7-9.3,24.2-14.9,41.1-5.7
	c25.3,14.7,49.1,31.9,71.2,51.1c11,9.2,13.6,22.8,6,37.2c-13.4,25.3-52.3,58.7-80.5,51.9c-49.3-11.8-248.5-89.1-312.5-312.8
	C199.1,274.7,200,270.7,200.5,266.9z"/>
<path class="st1" d="M400,766.7c-40.8,0-63.4-4.4-100-16.7l-70.2,35.1c-44.3,22.2-96.5-10.1-96.5-59.6V650
	c-71.8-66.9-100-144.1-100-250C33.3,197.5,197.5,33.3,400,33.3c202.5,0,366.7,164.2,366.7,366.7C766.7,602.5,602.5,766.7,400,766.7z
	 M200,621l-21.2-19.8C123,549.2,100,491.1,100,400c0-165.7,134.3-300,300-300c165.7,0,300,134.3,300,300c0,165.7-134.3,300-300,300
	c-32.9,0-48.3-3-78.8-13.2l-26.2-8.8L200,725.5V621z"/>
</svg>
